<svg width="351" height="75" viewBox="0 0 351 75" fill="none" xmlns="http://www.w3.org/2000/svg">
<mask id="mask0_469_2" style="mask-type:alpha" maskUnits="userSpaceOnUse" x="0" y="0" width="351" height="75">
<path d="M0 0H351V75H0V0Z" fill="#E0C9EB"/>
</mask>
<g mask="url(#mask0_469_2)">
<g opacity="0.5">
<circle cx="293.47" cy="36.9216" r="6.12056" transform="rotate(-35.6664 293.47 36.9216)" fill="#21B9DA"/>
<path d="M305.916 23.4692C307.728 25.9941 309.145 28.7651 310.086 31.6239C311.028 34.4827 311.474 37.3734 311.401 40.1308C311.328 42.8883 310.737 45.4585 309.661 47.6948C308.584 49.9311 307.045 51.7897 305.129 53.1644C303.214 54.5391 300.96 55.403 298.497 55.7068C296.034 56.0106 293.409 55.7483 290.774 54.935C288.138 54.1217 285.542 52.7732 283.135 50.9665C280.728 49.1599 278.556 46.9304 276.744 44.4055C276.744 44.4055 291.549 50.3544 299.181 44.8769C306.813 39.3993 305.916 23.4692 305.916 23.4692Z" fill="#21B9DA"/>
<path d="M327.776 63.0277C325.964 60.5028 323.929 58.1749 321.789 56.177C319.648 54.179 317.443 52.5501 315.3 51.3833C313.157 50.2165 311.117 49.5346 309.297 49.3766C307.478 49.2186 305.914 49.5875 304.695 50.4623C303.476 51.3371 302.626 52.7007 302.193 54.4751C301.761 56.2496 301.754 58.4002 302.173 60.8042C302.593 63.2081 303.43 65.8184 304.638 68.4859C305.846 71.1534 307.4 73.8259 309.212 76.3508C309.212 76.3508 306.5 63.23 311.357 59.7443C316.213 56.2586 327.776 63.0277 327.776 63.0277Z" fill="#21B9DA"/>
<circle cx="320.264" cy="12.49" r="6.12056" transform="rotate(-48.8572 320.264 12.49)" fill="#702B91"/>
<path d="M329.311 -3.44631C331.652 -1.40151 333.664 0.972975 335.232 3.54158C336.801 6.11019 337.896 8.82262 338.454 11.524C339.012 14.2254 339.022 16.8628 338.485 19.2857C337.948 21.7085 336.872 23.8694 335.321 25.645C333.77 27.4205 331.773 28.7759 329.444 29.6337C327.115 30.4916 324.5 30.8351 321.749 30.6447C318.997 30.4543 316.162 29.7337 313.406 28.524C310.65 27.3143 308.027 25.6393 305.687 23.5945C305.687 23.5945 321.458 26.008 327.639 18.9334C333.82 11.8587 329.311 -3.44631 329.311 -3.44631Z" fill="#702B91"/>
<path d="M359.623 30.0788C357.282 28.034 354.77 26.2318 352.23 24.7751C349.69 23.3183 347.172 22.2355 344.819 21.5886C342.466 20.9417 340.324 20.7432 338.517 21.0046C336.709 21.2659 335.271 21.982 334.283 23.1119C333.296 24.2417 332.78 25.7633 332.764 27.5897C332.747 29.4161 333.231 31.5115 334.188 33.7563C335.145 36.0012 336.556 38.3514 338.341 40.673C340.125 42.9945 342.248 45.2418 344.589 47.2866C344.589 47.2866 338.954 35.1309 342.887 30.6288C346.821 26.1268 359.623 30.0788 359.623 30.0788Z" fill="#702B91"/>
<circle cx="6.12056" cy="6.12056" r="6.12056" transform="matrix(-0.924042 0.382291 0.382291 0.924042 265.113 46.4565)" fill="#702B91"/>
<path d="M243.804 57.9228C244.992 60.7947 246.597 63.4608 248.529 65.7691C250.46 68.0774 252.679 69.9826 255.06 71.3759C257.441 72.7693 259.936 73.6235 262.403 73.8898C264.871 74.156 267.262 73.8292 269.441 72.9279C271.619 72.0265 273.543 70.5684 275.101 68.6367C276.659 66.7049 277.821 64.3375 278.522 61.6695C279.222 59.0014 279.447 56.0851 279.183 53.087C278.919 50.0888 278.172 47.0676 276.983 44.1958C276.983 44.1958 274.222 59.9104 265.541 63.5018C256.86 67.0931 243.804 57.9228 243.804 57.9228Z" fill="#702B91"/>
<path d="M265.863 97.3697C264.675 94.4978 263.772 91.5412 263.204 88.6685C262.637 85.7958 262.418 83.0633 262.558 80.627C262.698 78.1907 263.195 76.0984 264.022 74.4695C264.848 72.8406 265.987 71.707 267.373 71.1334C268.759 70.5599 270.366 70.5576 272.102 71.1266C273.837 71.6957 275.667 72.8251 277.488 74.4502C279.308 76.0753 281.083 78.1643 282.712 80.598C284.34 83.0317 285.789 85.7625 286.978 88.6343C286.978 88.6343 277.265 79.4052 271.741 81.6907C266.217 83.9761 265.863 97.3697 265.863 97.3697Z" fill="#702B91"/>
</g>
</g>
<path d="M57.075 46.5V37.85H61.825V45.425C61.825 45.9917 61.95 46.4417 62.2 46.775C62.4667 47.0917 62.825 47.25 63.275 47.25C63.525 47.25 63.775 47.2167 64.025 47.15C64.275 47.0833 64.525 46.95 64.775 46.75C65.0417 46.55 65.3 46.2667 65.55 45.9V37.85H70.3V45.75C70.3 46.2 70.3667 46.5167 70.5 46.7C70.6333 46.8667 70.8667 46.9667 71.2 47V51C70.7833 51.0833 70.4083 51.1417 70.075 51.175C69.7417 51.225 69.45 51.25 69.2 51.25C68.4 51.25 67.7667 51.1 67.3 50.8C66.8333 50.5 66.5333 50.0417 66.4 49.425L66.3 48.95C65.6833 49.7667 64.9417 50.3583 64.075 50.725C63.225 51.075 62.2583 51.25 61.175 51.25C59.8583 51.25 58.8417 50.8417 58.125 50.025C57.425 49.2083 57.075 48.0333 57.075 46.5ZM73.4424 44.4C73.4424 43.1 73.684 41.9417 74.1674 40.925C74.6674 39.8917 75.3507 39.0833 76.2174 38.5C77.084 37.9 78.0757 37.6 79.1924 37.6C80.0424 37.6 80.8257 37.8 81.5424 38.2C82.259 38.5833 82.8007 39.1167 83.1674 39.8V32.75H87.9174V45.75C87.9174 46.2 87.9841 46.5167 88.1174 46.7C88.2507 46.8667 88.4841 46.9667 88.8174 47V51C88.0007 51.1667 87.334 51.25 86.8174 51.25C86.0174 51.25 85.3841 51.1 84.9174 50.8C84.4507 50.5 84.1507 50.0417 84.0174 49.425L83.9174 48.95C83.4674 49.75 82.8591 50.3333 82.0924 50.7C81.3257 51.0667 80.509 51.25 79.6424 51.25C78.7424 51.25 77.909 51.0833 77.1424 50.75C76.3924 50.4167 75.734 49.95 75.1674 49.35C74.6174 48.7333 74.1924 48.0083 73.8924 47.175C73.5924 46.325 73.4424 45.4 73.4424 44.4ZM83.1924 45.9V43.55C83.0424 43.1667 82.8341 42.8333 82.5674 42.55C82.3174 42.25 82.034 42.0167 81.7174 41.85C81.4007 41.6833 81.0757 41.6 80.7424 41.6C80.3924 41.6 80.0674 41.675 79.7674 41.825C79.484 41.975 79.234 42.1833 79.0174 42.45C78.8007 42.7167 78.634 43.025 78.5174 43.375C78.4007 43.725 78.3424 44.1 78.3424 44.5C78.3424 44.9167 78.4007 45.2917 78.5174 45.625C78.6507 45.9583 78.834 46.25 79.0674 46.5C79.3007 46.7333 79.5757 46.9167 79.8924 47.05C80.2091 47.1833 80.5591 47.25 80.9424 47.25C81.1757 47.25 81.3924 47.225 81.5924 47.175C81.7924 47.1083 81.984 47.025 82.1674 46.925C82.3507 46.8083 82.5257 46.6667 82.6924 46.5C82.8757 46.3167 83.0424 46.1167 83.1924 45.9ZM91.0684 44.4C91.0684 43.1 91.31 41.9417 91.7934 40.925C92.2934 39.8917 92.9767 39.0833 93.8434 38.5C94.71 37.9 95.7017 37.6 96.8184 37.6C97.6684 37.6 98.4517 37.8 99.1684 38.2C99.885 38.5833 100.427 39.1167 100.793 39.8V32.75H105.543V45.75C105.543 46.2 105.61 46.5167 105.743 46.7C105.877 46.8667 106.11 46.9667 106.443 47V51C105.627 51.1667 104.96 51.25 104.443 51.25C103.643 51.25 103.01 51.1 102.543 50.8C102.077 50.5 101.777 50.0417 101.643 49.425L101.543 48.95C101.093 49.75 100.485 50.3333 99.7184 50.7C98.9517 51.0667 98.135 51.25 97.2684 51.25C96.3684 51.25 95.535 51.0833 94.7684 50.75C94.0184 50.4167 93.36 49.95 92.7934 49.35C92.2434 48.7333 91.8184 48.0083 91.5184 47.175C91.2184 46.325 91.0684 45.4 91.0684 44.4ZM100.818 45.9V43.55C100.668 43.1667 100.46 42.8333 100.193 42.55C99.9434 42.25 99.66 42.0167 99.3434 41.85C99.0267 41.6833 98.7017 41.6 98.3684 41.6C98.0184 41.6 97.6934 41.675 97.3934 41.825C97.11 41.975 96.86 42.1833 96.6434 42.45C96.4267 42.7167 96.26 43.025 96.1434 43.375C96.0267 43.725 95.9684 44.1 95.9684 44.5C95.9684 44.9167 96.0267 45.2917 96.1434 45.625C96.2767 45.9583 96.46 46.25 96.6934 46.5C96.9267 46.7333 97.2017 46.9167 97.5184 47.05C97.835 47.1833 98.185 47.25 98.5684 47.25C98.8017 47.25 99.0184 47.225 99.2184 47.175C99.4184 47.1083 99.61 47.025 99.7934 46.925C99.9767 46.8083 100.152 46.6667 100.318 46.5C100.502 46.3167 100.668 46.1167 100.818 45.9ZM109.172 52.325C109.556 52.4583 109.906 52.5583 110.222 52.625C110.556 52.7083 110.856 52.75 111.122 52.75C111.472 52.75 111.764 52.6833 111.997 52.55C112.231 52.4333 112.414 52.2417 112.547 51.975C112.681 51.7083 112.764 51.3833 112.797 51L108.022 37.85H112.897L115.397 46.125L117.422 37.85H121.847L117.397 52.575C117.147 53.425 116.739 54.1667 116.172 54.8C115.606 55.45 114.931 55.95 114.147 56.3C113.364 56.6667 112.522 56.85 111.622 56.85C111.206 56.85 110.789 56.8083 110.372 56.725C109.972 56.6583 109.572 56.5417 109.172 56.375V52.325ZM143.144 46.75V51H130.494V33.25H142.919V37.5H135.369V40H141.819V43.95H135.369V46.75H143.144ZM149.686 37.85L151.561 41.075L151.811 41.6L152.061 41.075L153.936 37.85H158.761L154.536 44.35L158.886 51H154.061L152.036 47.775L151.811 47.275L151.586 47.775L149.561 51H144.736L149.086 44.475L144.861 37.85H149.686ZM169.779 51.25C168.829 51.25 168.004 51.0667 167.304 50.7C166.604 50.3167 166.062 49.7667 165.679 49.05V56.325H160.929V37.85H165.054V39.825C165.52 39.1083 166.095 38.5583 166.779 38.175C167.479 37.7917 168.32 37.6 169.304 37.6C170.187 37.6 170.995 37.7667 171.729 38.1C172.462 38.4333 173.104 38.9083 173.654 39.525C174.204 40.1417 174.629 40.8583 174.929 41.675C175.229 42.4917 175.379 43.3917 175.379 44.375C175.379 45.6917 175.137 46.8667 174.654 47.9C174.17 48.9333 173.504 49.75 172.654 50.35C171.82 50.95 170.862 51.25 169.779 51.25ZM168.129 47.25C168.479 47.25 168.795 47.175 169.079 47.025C169.379 46.875 169.637 46.6667 169.854 46.4C170.07 46.1333 170.237 45.825 170.354 45.475C170.47 45.125 170.529 44.75 170.529 44.35C170.529 43.9333 170.462 43.5583 170.329 43.225C170.212 42.8917 170.037 42.6083 169.804 42.375C169.57 42.125 169.295 41.9333 168.979 41.8C168.662 41.6667 168.312 41.6 167.929 41.6C167.712 41.6 167.495 41.6333 167.279 41.7C167.079 41.75 166.887 41.8333 166.704 41.95C166.52 42.05 166.337 42.1833 166.154 42.35C165.987 42.5167 165.829 42.7167 165.679 42.95V45.225C165.829 45.6083 166.029 45.9583 166.279 46.275C166.545 46.575 166.837 46.8167 167.154 47C167.47 47.1667 167.795 47.25 168.129 47.25ZM187.04 41.9C186.123 41.9 185.29 42 184.54 42.2C183.79 42.4 183.232 42.7333 182.865 43.2V51H178.115V37.85H182.465V40.35C182.932 39.4667 183.515 38.7917 184.215 38.325C184.915 37.8417 185.657 37.6 186.44 37.6C186.623 37.6 186.748 37.6 186.815 37.6C186.898 37.6 186.973 37.6083 187.04 37.625V41.9ZM195.99 51.25C194.84 51.25 193.815 51.075 192.915 50.725C192.015 50.3583 191.257 49.8667 190.64 49.25C190.04 48.6333 189.582 47.925 189.265 47.125C188.949 46.325 188.79 45.4833 188.79 44.6C188.79 43.3333 189.065 42.175 189.615 41.125C190.165 40.0583 190.974 39.2083 192.04 38.575C193.107 37.925 194.424 37.6 195.99 37.6C197.557 37.6 198.874 37.9167 199.94 38.55C201.007 39.1833 201.815 40.0167 202.365 41.05C202.915 42.0833 203.19 43.2083 203.19 44.425C203.19 44.675 203.174 44.9333 203.14 45.2C203.124 45.45 203.099 45.675 203.065 45.875H193.84C193.874 46.3417 193.999 46.725 194.215 47.025C194.449 47.3083 194.732 47.5167 195.065 47.65C195.415 47.7833 195.774 47.85 196.14 47.85C196.657 47.85 197.14 47.7333 197.59 47.5C198.057 47.2667 198.365 46.9417 198.515 46.525L202.54 47.675C202.19 48.375 201.699 48.9917 201.065 49.525C200.449 50.0583 199.715 50.4833 198.865 50.8C198.015 51.1 197.057 51.25 195.99 51.25ZM193.74 43.025H198.09C198.04 42.5917 197.915 42.225 197.715 41.925C197.532 41.625 197.282 41.3917 196.965 41.225C196.665 41.0583 196.315 40.975 195.915 40.975C195.515 40.975 195.157 41.0583 194.84 41.225C194.54 41.3917 194.29 41.625 194.09 41.925C193.907 42.225 193.79 42.5917 193.74 43.025ZM211.025 51.25C209.875 51.25 208.741 51.0667 207.625 50.7C206.525 50.3167 205.591 49.7667 204.825 49.05L206.45 46.125C207.266 46.6583 208.05 47.075 208.8 47.375C209.566 47.675 210.258 47.825 210.875 47.825C211.225 47.825 211.483 47.7833 211.65 47.7C211.816 47.6 211.9 47.4417 211.9 47.225C211.9 47.075 211.841 46.95 211.725 46.85C211.608 46.75 211.416 46.65 211.15 46.55C210.9 46.45 210.575 46.3417 210.175 46.225C209.141 45.8583 208.275 45.5167 207.575 45.2C206.891 44.8833 206.375 44.5 206.025 44.05C205.691 43.5833 205.525 42.9667 205.525 42.2C205.525 41.3 205.75 40.5083 206.2 39.825C206.65 39.125 207.291 38.575 208.125 38.175C208.975 37.775 209.991 37.575 211.175 37.575C212.058 37.575 212.941 37.7167 213.825 38C214.725 38.2667 215.591 38.7583 216.425 39.475L214.625 42.375C213.791 41.8583 213.083 41.4917 212.5 41.275C211.933 41.0583 211.425 40.95 210.975 40.95C210.758 40.95 210.566 40.975 210.4 41.025C210.25 41.075 210.133 41.15 210.05 41.25C209.966 41.35 209.925 41.4833 209.925 41.65C209.925 41.8167 209.983 41.9583 210.1 42.075C210.216 42.175 210.4 42.275 210.65 42.375C210.9 42.4583 211.216 42.5583 211.6 42.675C212.733 43.0083 213.658 43.35 214.375 43.7C215.091 44.0333 215.616 44.4417 215.95 44.925C216.3 45.4083 216.475 46.0417 216.475 46.825C216.475 48.2083 215.983 49.2917 215 50.075C214.033 50.8583 212.708 51.25 211.025 51.25ZM224.549 51.25C223.399 51.25 222.266 51.0667 221.149 50.7C220.049 50.3167 219.116 49.7667 218.349 49.05L219.974 46.125C220.791 46.6583 221.574 47.075 222.324 47.375C223.091 47.675 223.783 47.825 224.399 47.825C224.749 47.825 225.008 47.7833 225.174 47.7C225.341 47.6 225.424 47.4417 225.424 47.225C225.424 47.075 225.366 46.95 225.249 46.85C225.133 46.75 224.941 46.65 224.674 46.55C224.424 46.45 224.099 46.3417 223.699 46.225C222.666 45.8583 221.799 45.5167 221.099 45.2C220.416 44.8833 219.899 44.5 219.549 44.05C219.216 43.5833 219.049 42.9667 219.049 42.2C219.049 41.3 219.274 40.5083 219.724 39.825C220.174 39.125 220.816 38.575 221.649 38.175C222.499 37.775 223.516 37.575 224.699 37.575C225.583 37.575 226.466 37.7167 227.349 38C228.249 38.2667 229.116 38.7583 229.949 39.475L228.149 42.375C227.316 41.8583 226.608 41.4917 226.024 41.275C225.458 41.0583 224.949 40.95 224.499 40.95C224.283 40.95 224.091 40.975 223.924 41.025C223.774 41.075 223.658 41.15 223.574 41.25C223.491 41.35 223.449 41.4833 223.449 41.65C223.449 41.8167 223.508 41.9583 223.624 42.075C223.741 42.175 223.924 42.275 224.174 42.375C224.424 42.4583 224.741 42.5583 225.124 42.675C226.258 43.0083 227.183 43.35 227.899 43.7C228.616 44.0333 229.141 44.4417 229.474 44.925C229.824 45.4083 229.999 46.0417 229.999 46.825C229.999 48.2083 229.508 49.2917 228.524 50.075C227.558 50.8583 226.233 51.25 224.549 51.25Z" fill="#702B91"/>
<path d="M27.1095 64H33.4214C33.4214 64 32.5057 47.297 33.7681 31.8786C34.0342 28.6284 35.1605 22.9172 37.0919 20.3146C38.5222 18.3873 40.8791 17.7449 42.6048 19.0298C46.2079 21.7125 37.5552 32.5208 37.5552 32.5208C37.5552 32.5208 44.8145 30.5939 47.6544 32.5208C50.1156 34.1908 49.1148 38.7436 47.0232 40.8724C43.2357 44.7274 35.1983 42.1576 35.1983 42.1576V48.5817C35.1983 48.5817 43.236 53.0785 48.9168 49.8664C55.8958 45.9203 58.3848 35.0908 53.3352 29.309C50.1792 25.6954 42.6048 29.309 42.6048 29.309C42.6048 29.309 53.3352 21.5998 47.6544 13.8904C44.1922 9.19186 38.8675 10.8165 34.3993 14.5327C30.1099 18.1002 28.1161 26.2808 27.4561 31.8786C25.5625 47.9394 27.1095 64 27.1095 64Z" fill="#702B91"/>
<path fill-rule="evenodd" clip-rule="evenodd" d="M25.0992 40.23V46.0119C23.4978 45.5462 20.7066 43.7395 19.5556 43.1337V36.7429C20.8038 37.6634 23.6117 39.7254 25.0992 40.23Z" fill="#702B91"/>
<path d="M15 33.1633V40.23C15.4019 40.5298 15.7827 40.8168 16.1477 41.092C17.3534 42.0008 17.3626 41.9236 18.4148 42.6044V35.8867C18.0765 35.6073 18.7605 36.1773 18.4148 35.8867C17.356 34.9964 16.2481 34.0648 15 33.1633Z" fill="#59C9E0"/>
</svg>
