<svg width="328" height="201" viewBox="0 0 328 201" fill="none" xmlns="http://www.w3.org/2000/svg">
<mask id="mask0_431_2984" style="mask-type:alpha" maskUnits="userSpaceOnUse" x="0" y="0" width="328" height="201">
<rect width="328" height="201" fill="#E0C9EB"/>
</mask>
<g mask="url(#mask0_431_2984)">
<g opacity="0.5">
<circle cx="262.495" cy="49.2496" r="6.75113" transform="rotate(-35.6664 262.495 49.2496)" fill="#21B9DA"/>
<path d="M276.223 34.4116C278.222 37.1967 279.785 40.2531 280.823 43.4065C281.861 46.5598 282.354 49.7482 282.274 52.7898C282.193 55.8313 281.541 58.6663 280.353 61.133C279.166 63.5997 277.468 65.6498 275.355 67.1661C273.242 68.6824 270.757 69.6353 268.04 69.9704C265.323 70.3056 262.428 70.0163 259.521 69.1192C256.613 68.222 253.75 66.7346 251.095 64.7418C248.44 62.7491 246.045 60.2899 244.046 57.5049C244.046 57.5049 260.376 64.0666 268.795 58.0248C277.213 51.9829 276.223 34.4116 276.223 34.4116Z" fill="#21B9DA"/>
<path d="M300.336 78.0455C298.337 75.2604 296.093 72.6927 293.732 70.4889C291.371 68.2851 288.939 66.4884 286.575 65.2014C284.211 63.9144 281.961 63.1623 279.954 62.988C277.947 62.8137 276.222 63.2206 274.877 64.1855C273.533 65.1504 272.595 66.6545 272.118 68.6118C271.64 70.569 271.633 72.9412 272.096 75.5929C272.558 78.2445 273.482 81.1237 274.814 84.066C276.146 87.0083 277.861 89.9562 279.859 92.7412C279.859 92.7412 276.868 78.2686 282.225 74.4238C287.582 70.579 300.336 78.0455 300.336 78.0455Z" fill="#21B9DA"/>
<circle cx="292.051" cy="22.3011" r="6.75113" transform="rotate(-48.8572 292.051 22.3011)" fill="#702B91"/>
<path d="M302.029 4.72315C304.611 6.97861 306.83 9.59773 308.561 12.431C310.291 15.2642 311.498 18.2561 312.114 21.2358C312.729 24.2154 312.741 27.1246 312.148 29.7971C311.555 32.4696 310.37 34.8531 308.659 36.8115C306.947 38.77 304.745 40.265 302.176 41.2112C299.607 42.1575 296.723 42.5364 293.688 42.3264C290.652 42.1164 287.525 41.3215 284.485 39.9872C281.446 38.6529 278.552 36.8053 275.971 34.5498C275.971 34.5498 293.367 37.212 300.185 29.4085C307.003 21.605 302.029 4.72315 302.029 4.72315Z" fill="#702B91"/>
<path d="M335.464 41.7025C332.882 39.447 330.111 37.4591 327.31 35.8523C324.508 34.2455 321.73 33.0512 319.135 32.3376C316.539 31.624 314.177 31.4051 312.183 31.6934C310.189 31.9816 308.603 32.7715 307.514 34.0178C306.425 35.264 305.855 36.9424 305.837 38.9569C305.819 40.9715 306.353 43.2828 307.409 45.7589C308.464 48.235 310.021 50.8274 311.989 53.3881C313.957 55.9488 316.299 58.4276 318.881 60.6831C318.881 60.6831 312.666 47.275 317.004 42.3092C321.343 37.3433 335.464 41.7025 335.464 41.7025Z" fill="#702B91"/>
<circle cx="6.75113" cy="6.75113" r="6.75113" transform="matrix(-0.924042 0.382291 0.382291 0.924042 231.217 59.7671)" fill="#702B91"/>
<path d="M207.711 72.4142C209.022 75.5819 210.793 78.5227 212.923 81.0688C215.054 83.6149 217.502 85.7164 220.128 87.2533C222.754 88.7902 225.506 89.7324 228.228 90.0261C230.949 90.3198 233.587 89.9593 235.99 88.9651C238.393 87.9709 240.514 86.3625 242.233 84.2318C243.952 82.1011 245.234 79.4897 246.006 76.5468C246.779 73.6039 247.027 70.3872 246.736 67.0801C246.444 63.7731 245.62 60.4406 244.31 57.2729C244.31 57.2729 241.264 74.6065 231.688 78.5679C222.113 82.5293 207.711 72.4142 207.711 72.4142Z" fill="#702B91"/>
<path d="M232.044 115.925C230.734 112.758 229.737 109.496 229.112 106.328C228.486 103.159 228.244 100.145 228.398 97.4578C228.553 94.7706 229.102 92.4627 230.013 90.666C230.924 88.8692 232.18 87.6189 233.71 86.9862C235.239 86.3535 237.011 86.351 238.926 86.9787C240.84 87.6064 242.859 88.8521 244.867 90.6446C246.875 92.4371 248.833 94.7414 250.629 97.4259C252.425 100.11 254.023 103.122 255.334 106.29C255.334 106.29 244.621 96.1102 238.527 98.6311C232.434 101.152 232.044 115.925 232.044 115.925Z" fill="#702B91"/>
</g>
</g>
</svg>
