<svg width="364" height="237" viewBox="0 0 364 237" fill="none" xmlns="http://www.w3.org/2000/svg">
<rect width="174" height="85" fill="white"/>
<path d="M31.065 37.35V48H29.01V43.455H24.18V48H22.11V37.35H24.18V41.655H29.01V37.35H31.065ZM36.5899 48.15C35.9499 48.15 35.3749 48.045 34.8649 47.835C34.3549 47.615 33.9199 47.315 33.5599 46.935C33.2099 46.555 32.9399 46.12 32.7499 45.63C32.5599 45.14 32.4649 44.625 32.4649 44.085C32.4649 43.535 32.5599 43.015 32.7499 42.525C32.9399 42.035 33.2099 41.6 33.5599 41.22C33.9199 40.84 34.3549 40.545 34.8649 40.335C35.3749 40.115 35.9499 40.005 36.5899 40.005C37.2299 40.005 37.7999 40.115 38.2999 40.335C38.8099 40.545 39.2449 40.84 39.6049 41.22C39.9649 41.6 40.2349 42.035 40.4149 42.525C40.6049 43.015 40.6999 43.535 40.6999 44.085C40.6999 44.625 40.6049 45.14 40.4149 45.63C40.2349 46.12 39.9649 46.555 39.6049 46.935C39.2549 47.315 38.8249 47.615 38.3149 47.835C37.8049 48.045 37.2299 48.15 36.5899 48.15ZM34.5349 44.085C34.5349 44.545 34.6249 44.955 34.8049 45.315C34.9849 45.665 35.2299 45.94 35.5399 46.14C35.8499 46.34 36.1999 46.44 36.5899 46.44C36.9699 46.44 37.3149 46.34 37.6249 46.14C37.9349 45.93 38.1799 45.65 38.3599 45.3C38.5499 44.94 38.6449 44.53 38.6449 44.07C38.6449 43.62 38.5499 43.215 38.3599 42.855C38.1799 42.495 37.9349 42.215 37.6249 42.015C37.3149 41.815 36.9699 41.715 36.5899 41.715C36.1999 41.715 35.8499 41.82 35.5399 42.03C35.2299 42.23 34.9849 42.51 34.8049 42.87C34.6249 43.22 34.5349 43.625 34.5349 44.085ZM49.3616 48H47.3516V43.59C47.3516 42.96 47.2416 42.5 47.0216 42.21C46.8016 41.92 46.4966 41.775 46.1066 41.775C45.8366 41.775 45.5616 41.845 45.2816 41.985C45.0116 42.125 44.7666 42.32 44.5466 42.57C44.3266 42.81 44.1666 43.09 44.0666 43.41V48H42.0566V40.14H43.8716V41.595C44.0716 41.255 44.3266 40.97 44.6366 40.74C44.9466 40.5 45.3016 40.32 45.7016 40.2C46.1116 40.07 46.5416 40.005 46.9916 40.005C47.4816 40.005 47.8816 40.095 48.1916 40.275C48.5116 40.445 48.7516 40.68 48.9116 40.98C49.0816 41.27 49.1966 41.6 49.2566 41.97C49.3266 42.34 49.3616 42.715 49.3616 43.095V48ZM54.1843 48.045C53.6643 48.045 53.1843 47.945 52.7443 47.745C52.3143 47.535 51.9393 47.245 51.6193 46.875C51.3093 46.505 51.0693 46.08 50.8993 45.6C50.7293 45.12 50.6443 44.61 50.6443 44.07C50.6443 43.5 50.7343 42.97 50.9143 42.48C51.0943 41.99 51.3443 41.56 51.6643 41.19C51.9943 40.81 52.3793 40.52 52.8193 40.32C53.2693 40.11 53.7643 40.005 54.3043 40.005C54.9143 40.005 55.4493 40.145 55.9093 40.425C56.3693 40.695 56.7493 41.06 57.0493 41.52V40.14H58.8043V47.625C58.8043 48.405 58.6143 49.07 58.2343 49.62C57.8643 50.18 57.3493 50.605 56.6893 50.895C56.0293 51.195 55.2793 51.345 54.4393 51.345C53.5893 51.345 52.8693 51.2 52.2793 50.91C51.6893 50.63 51.1843 50.23 50.7643 49.71L51.8593 48.645C52.1593 49.015 52.5343 49.305 52.9843 49.515C53.4443 49.725 53.9293 49.83 54.4393 49.83C54.8693 49.83 55.2593 49.75 55.6093 49.59C55.9693 49.44 56.2543 49.2 56.4643 48.87C56.6843 48.55 56.7943 48.135 56.7943 47.625V46.635C56.5343 47.085 56.1643 47.435 55.6843 47.685C55.2143 47.925 54.7143 48.045 54.1843 48.045ZM54.8593 46.44C55.0793 46.44 55.2893 46.405 55.4893 46.335C55.6893 46.265 55.8743 46.17 56.0443 46.05C56.2143 45.93 56.3643 45.79 56.4943 45.63C56.6243 45.46 56.7243 45.29 56.7943 45.12V43.245C56.6743 42.935 56.5043 42.665 56.2843 42.435C56.0743 42.205 55.8343 42.03 55.5643 41.91C55.3043 41.78 55.0293 41.715 54.7393 41.715C54.4293 41.715 54.1493 41.78 53.8993 41.91C53.6493 42.04 53.4343 42.225 53.2543 42.465C53.0743 42.695 52.9343 42.955 52.8343 43.245C52.7443 43.525 52.6993 43.82 52.6993 44.13C52.6993 44.45 52.7543 44.75 52.8643 45.03C52.9743 45.31 53.1243 45.555 53.3143 45.765C53.5143 45.975 53.7443 46.14 54.0043 46.26C54.2743 46.38 54.5593 46.44 54.8593 46.44ZM64.4147 48V37.365H66.4847V42.42L70.9547 37.35H73.2347L69.1547 42.075L73.4897 48H71.1497L67.8347 43.41L66.4847 44.82V48H64.4147ZM77.3565 48.15C76.7165 48.15 76.1415 48.045 75.6315 47.835C75.1215 47.615 74.6865 47.315 74.3265 46.935C73.9765 46.555 73.7065 46.12 73.5165 45.63C73.3265 45.14 73.2315 44.625 73.2315 44.085C73.2315 43.535 73.3265 43.015 73.5165 42.525C73.7065 42.035 73.9765 41.6 74.3265 41.22C74.6865 40.84 75.1215 40.545 75.6315 40.335C76.1415 40.115 76.7165 40.005 77.3565 40.005C77.9965 40.005 78.5665 40.115 79.0665 40.335C79.5765 40.545 80.0115 40.84 80.3715 41.22C80.7315 41.6 81.0015 42.035 81.1815 42.525C81.3715 43.015 81.4665 43.535 81.4665 44.085C81.4665 44.625 81.3715 45.14 81.1815 45.63C81.0015 46.12 80.7315 46.555 80.3715 46.935C80.0215 47.315 79.5915 47.615 79.0815 47.835C78.5715 48.045 77.9965 48.15 77.3565 48.15ZM75.3015 44.085C75.3015 44.545 75.3915 44.955 75.5715 45.315C75.7515 45.665 75.9965 45.94 76.3065 46.14C76.6165 46.34 76.9665 46.44 77.3565 46.44C77.7365 46.44 78.0815 46.34 78.3915 46.14C78.7015 45.93 78.9465 45.65 79.1265 45.3C79.3165 44.94 79.4115 44.53 79.4115 44.07C79.4115 43.62 79.3165 43.215 79.1265 42.855C78.9465 42.495 78.7015 42.215 78.3915 42.015C78.0815 41.815 77.7365 41.715 77.3565 41.715C76.9665 41.715 76.6165 41.82 76.3065 42.03C75.9965 42.23 75.7515 42.51 75.5715 42.87C75.3915 43.22 75.3015 43.625 75.3015 44.085ZM90.1282 48H88.1182V43.59C88.1182 42.96 88.0082 42.5 87.7882 42.21C87.5682 41.92 87.2632 41.775 86.8732 41.775C86.6032 41.775 86.3282 41.845 86.0482 41.985C85.7782 42.125 85.5332 42.32 85.3132 42.57C85.0932 42.81 84.9332 43.09 84.8332 43.41V48H82.8232V40.14H84.6382V41.595C84.8382 41.255 85.0932 40.97 85.4032 40.74C85.7132 40.5 86.0682 40.32 86.4682 40.2C86.8782 40.07 87.3082 40.005 87.7582 40.005C88.2482 40.005 88.6482 40.095 88.9582 40.275C89.2782 40.445 89.5182 40.68 89.6782 40.98C89.8482 41.27 89.9632 41.6 90.0232 41.97C90.0932 42.34 90.1282 42.715 90.1282 43.095V48ZM94.9509 48.045C94.4309 48.045 93.9509 47.945 93.5109 47.745C93.0809 47.535 92.7059 47.245 92.3859 46.875C92.0759 46.505 91.8359 46.08 91.6659 45.6C91.4959 45.12 91.4109 44.61 91.4109 44.07C91.4109 43.5 91.5009 42.97 91.6809 42.48C91.8609 41.99 92.1109 41.56 92.4309 41.19C92.7609 40.81 93.1459 40.52 93.5859 40.32C94.0359 40.11 94.5309 40.005 95.0709 40.005C95.6809 40.005 96.2159 40.145 96.6759 40.425C97.1359 40.695 97.5159 41.06 97.8159 41.52V40.14H99.5709V47.625C99.5709 48.405 99.3809 49.07 99.0009 49.62C98.6309 50.18 98.1159 50.605 97.4559 50.895C96.7959 51.195 96.0459 51.345 95.2059 51.345C94.3559 51.345 93.6359 51.2 93.0459 50.91C92.4559 50.63 91.9509 50.23 91.5309 49.71L92.6259 48.645C92.9259 49.015 93.3009 49.305 93.7509 49.515C94.2109 49.725 94.6959 49.83 95.2059 49.83C95.6359 49.83 96.0259 49.75 96.3759 49.59C96.7359 49.44 97.0209 49.2 97.2309 48.87C97.4509 48.55 97.5609 48.135 97.5609 47.625V46.635C97.3009 47.085 96.9309 47.435 96.4509 47.685C95.9809 47.925 95.4809 48.045 94.9509 48.045ZM95.6259 46.44C95.8459 46.44 96.0559 46.405 96.2559 46.335C96.4559 46.265 96.6409 46.17 96.8109 46.05C96.9809 45.93 97.1309 45.79 97.2609 45.63C97.3909 45.46 97.4909 45.29 97.5609 45.12V43.245C97.4409 42.935 97.2709 42.665 97.0509 42.435C96.8409 42.205 96.6009 42.03 96.3309 41.91C96.0709 41.78 95.7959 41.715 95.5059 41.715C95.1959 41.715 94.9159 41.78 94.6659 41.91C94.4159 42.04 94.2009 42.225 94.0209 42.465C93.8409 42.695 93.7009 42.955 93.6009 43.245C93.5109 43.525 93.4659 43.82 93.4659 44.13C93.4659 44.45 93.5209 44.75 93.6309 45.03C93.7409 45.31 93.8909 45.555 94.0809 45.765C94.2809 45.975 94.5109 46.14 94.7709 46.26C95.0409 46.38 95.3259 46.44 95.6259 46.44ZM104.581 42.795C104.581 41.785 104.796 40.775 105.226 39.765C105.656 38.745 106.186 37.705 106.816 36.645L108.346 37.29C108.196 37.53 108.011 37.855 107.791 38.265C107.581 38.675 107.371 39.14 107.161 39.66C106.961 40.17 106.791 40.7 106.651 41.25C106.521 41.8 106.456 42.33 106.456 42.84C106.456 43.64 106.626 44.48 106.966 45.36C107.316 46.23 107.761 47.13 108.301 48.06L106.831 48.795C106.421 48.165 106.041 47.52 105.691 46.86C105.351 46.2 105.081 45.525 104.881 44.835C104.681 44.145 104.581 43.465 104.581 42.795ZM118.78 37.35V48H116.725V43.455H111.895V48H109.825V37.35H111.895V41.655H116.725V37.35H118.78ZM121.002 48V37.365H123.072V42.42L127.542 37.35H129.822L125.742 42.075L130.077 48H127.737L124.422 43.41L123.072 44.82V48H121.002ZM134.846 48.075C134.156 48.075 133.501 47.935 132.881 47.655C132.271 47.375 131.731 46.99 131.261 46.5C130.801 46 130.441 45.42 130.181 44.76C129.921 44.1 129.791 43.385 129.791 42.615C129.791 41.885 129.921 41.2 130.181 40.56C130.441 39.91 130.806 39.34 131.276 38.85C131.746 38.36 132.296 37.975 132.926 37.695C133.556 37.415 134.241 37.275 134.981 37.275C135.981 37.275 136.836 37.49 137.546 37.92C138.266 38.34 138.806 38.9 139.166 39.6L137.621 40.74C137.351 40.21 136.971 39.805 136.481 39.525C136.001 39.245 135.476 39.105 134.906 39.105C134.456 39.105 134.046 39.2 133.676 39.39C133.306 39.58 132.986 39.84 132.716 40.17C132.446 40.5 132.236 40.88 132.086 41.31C131.946 41.74 131.876 42.195 131.876 42.675C131.876 43.185 131.951 43.655 132.101 44.085C132.261 44.515 132.481 44.89 132.761 45.21C133.051 45.53 133.386 45.785 133.766 45.975C134.146 46.155 134.566 46.245 135.026 46.245C135.566 46.245 136.081 46.105 136.571 45.825C137.071 45.545 137.536 45.135 137.966 44.595V46.635C137.076 47.595 136.036 48.075 134.846 48.075ZM137.816 44.04H135.671V42.525H139.526V48H137.816V44.04ZM144.305 42.795C144.305 43.465 144.205 44.145 144.005 44.835C143.805 45.525 143.535 46.2 143.195 46.86C142.855 47.52 142.475 48.165 142.055 48.795L140.585 48.06C141.135 47.13 141.58 46.23 141.92 45.36C142.26 44.48 142.43 43.64 142.43 42.84C142.43 42.33 142.36 41.8 142.22 41.25C142.09 40.7 141.92 40.17 141.71 39.66C141.51 39.14 141.305 38.675 141.095 38.265C140.885 37.855 140.7 37.53 140.54 37.29L142.085 36.645C142.705 37.705 143.23 38.745 143.66 39.765C144.09 40.775 144.305 41.785 144.305 42.795Z" fill="black"/>
<rect x="191" width="173" height="85" fill="white"/>
<path d="M211.109 40.712C211.053 40.656 210.949 40.58 210.797 40.484C210.653 40.388 210.473 40.296 210.257 40.208C210.049 40.12 209.821 40.044 209.573 39.98C209.325 39.908 209.073 39.872 208.817 39.872C208.369 39.872 208.029 39.956 207.797 40.124C207.573 40.292 207.461 40.528 207.461 40.832C207.461 41.064 207.533 41.248 207.677 41.384C207.821 41.52 208.037 41.636 208.325 41.732C208.613 41.828 208.973 41.932 209.405 42.044C209.965 42.18 210.449 42.348 210.857 42.548C211.273 42.74 211.589 42.996 211.805 43.316C212.029 43.628 212.141 44.044 212.141 44.564C212.141 45.02 212.057 45.412 211.889 45.74C211.721 46.06 211.489 46.32 211.193 46.52C210.897 46.72 210.561 46.868 210.185 46.964C209.809 47.052 209.409 47.096 208.985 47.096C208.561 47.096 208.137 47.052 207.713 46.964C207.289 46.876 206.881 46.752 206.489 46.592C206.097 46.424 205.737 46.224 205.409 45.992L206.141 44.564C206.213 44.636 206.341 44.732 206.525 44.852C206.709 44.964 206.933 45.08 207.197 45.2C207.461 45.312 207.749 45.408 208.061 45.488C208.373 45.568 208.689 45.608 209.009 45.608C209.457 45.608 209.797 45.532 210.029 45.38C210.261 45.228 210.377 45.012 210.377 44.732C210.377 44.476 210.285 44.276 210.101 44.132C209.917 43.988 209.661 43.864 209.333 43.76C209.005 43.648 208.617 43.528 208.169 43.4C207.633 43.248 207.185 43.08 206.825 42.896C206.465 42.704 206.197 42.464 206.021 42.176C205.845 41.888 205.757 41.528 205.757 41.096C205.757 40.512 205.893 40.024 206.165 39.632C206.445 39.232 206.821 38.932 207.293 38.732C207.765 38.524 208.289 38.42 208.865 38.42C209.265 38.42 209.641 38.464 209.993 38.552C210.353 38.64 210.689 38.756 211.001 38.9C211.313 39.044 211.593 39.2 211.841 39.368L211.109 40.712ZM216.152 47.12C215.648 47.12 215.192 47.036 214.784 46.868C214.376 46.692 214.028 46.456 213.74 46.16C213.452 45.856 213.228 45.512 213.068 45.128C212.916 44.736 212.84 44.324 212.84 43.892C212.84 43.292 212.972 42.744 213.236 42.248C213.508 41.752 213.892 41.356 214.388 41.06C214.892 40.756 215.484 40.604 216.164 40.604C216.852 40.604 217.44 40.756 217.928 41.06C218.416 41.356 218.788 41.752 219.044 42.248C219.308 42.736 219.44 43.264 219.44 43.832C219.44 43.928 219.436 44.028 219.428 44.132C219.42 44.228 219.412 44.308 219.404 44.372H214.544C214.576 44.692 214.668 44.972 214.82 45.212C214.98 45.452 215.18 45.636 215.42 45.764C215.668 45.884 215.932 45.944 216.212 45.944C216.532 45.944 216.832 45.868 217.112 45.716C217.4 45.556 217.596 45.348 217.7 45.092L219.08 45.476C218.928 45.796 218.708 46.08 218.42 46.328C218.14 46.576 217.808 46.772 217.424 46.916C217.04 47.052 216.616 47.12 216.152 47.12ZM214.508 43.352H217.796C217.764 43.032 217.672 42.756 217.52 42.524C217.376 42.284 217.184 42.1 216.944 41.972C216.704 41.836 216.436 41.768 216.14 41.768C215.852 41.768 215.588 41.836 215.348 41.972C215.116 42.1 214.924 42.284 214.772 42.524C214.628 42.756 214.54 43.032 214.508 43.352ZM220.408 38.24H222.016V44.984C222.016 45.272 222.064 45.468 222.16 45.572C222.256 45.668 222.388 45.716 222.556 45.716C222.684 45.716 222.816 45.7 222.952 45.668C223.088 45.636 223.208 45.596 223.312 45.548L223.528 46.772C223.312 46.876 223.06 46.956 222.771 47.012C222.484 47.068 222.224 47.096 221.992 47.096C221.488 47.096 221.096 46.964 220.816 46.7C220.544 46.428 220.408 46.044 220.408 45.548V38.24ZM227.144 47.12C226.64 47.12 226.184 47.036 225.776 46.868C225.368 46.692 225.02 46.456 224.732 46.16C224.444 45.856 224.22 45.512 224.06 45.128C223.908 44.736 223.832 44.324 223.832 43.892C223.832 43.292 223.964 42.744 224.228 42.248C224.5 41.752 224.884 41.356 225.38 41.06C225.884 40.756 226.476 40.604 227.156 40.604C227.844 40.604 228.432 40.756 228.92 41.06C229.408 41.356 229.78 41.752 230.036 42.248C230.3 42.736 230.432 43.264 230.432 43.832C230.432 43.928 230.428 44.028 230.42 44.132C230.412 44.228 230.404 44.308 230.396 44.372H225.536C225.568 44.692 225.66 44.972 225.812 45.212C225.972 45.452 226.172 45.636 226.412 45.764C226.66 45.884 226.924 45.944 227.204 45.944C227.524 45.944 227.824 45.868 228.104 45.716C228.392 45.556 228.588 45.348 228.692 45.092L230.072 45.476C229.92 45.796 229.7 46.08 229.412 46.328C229.132 46.576 228.8 46.772 228.416 46.916C228.032 47.052 227.608 47.12 227.144 47.12ZM225.5 43.352H228.788C228.756 43.032 228.664 42.756 228.512 42.524C228.368 42.284 228.176 42.1 227.936 41.972C227.696 41.836 227.428 41.768 227.132 41.768C226.844 41.768 226.58 41.836 226.34 41.972C226.108 42.1 225.916 42.284 225.764 42.524C225.62 42.756 225.532 43.032 225.5 43.352ZM234.34 47.12C233.828 47.12 233.368 47.036 232.96 46.868C232.552 46.692 232.204 46.452 231.916 46.148C231.628 45.836 231.404 45.484 231.244 45.092C231.092 44.7 231.016 44.288 231.016 43.856C231.016 43.264 231.148 42.724 231.412 42.236C231.684 41.74 232.068 41.344 232.564 41.048C233.06 40.752 233.648 40.604 234.328 40.604C235.008 40.604 235.592 40.752 236.08 41.048C236.568 41.344 236.932 41.732 237.172 42.212L235.6 42.692C235.464 42.46 235.284 42.284 235.06 42.164C234.836 42.036 234.588 41.972 234.316 41.972C234.012 41.972 233.732 42.052 233.476 42.212C233.228 42.364 233.032 42.584 232.888 42.872C232.744 43.152 232.672 43.48 232.672 43.856C232.672 44.224 232.744 44.552 232.888 44.84C233.04 45.12 233.24 45.344 233.488 45.512C233.736 45.672 234.012 45.752 234.316 45.752C234.508 45.752 234.688 45.72 234.856 45.656C235.032 45.592 235.188 45.504 235.324 45.392C235.46 45.28 235.56 45.152 235.624 45.008L237.196 45.488C237.052 45.8 236.84 46.08 236.56 46.328C236.288 46.576 235.964 46.772 235.588 46.916C235.22 47.052 234.804 47.12 234.34 47.12ZM241.953 46.676C241.817 46.732 241.653 46.796 241.461 46.868C241.269 46.94 241.061 46.996 240.837 47.036C240.621 47.084 240.401 47.108 240.177 47.108C239.881 47.108 239.609 47.056 239.361 46.952C239.113 46.848 238.913 46.684 238.761 46.46C238.617 46.228 238.545 45.928 238.545 45.56V41.948H237.717V40.712H238.545V38.672H240.153V40.712H241.473V41.948H240.153V45.02C240.161 45.236 240.221 45.392 240.333 45.488C240.445 45.584 240.585 45.632 240.753 45.632C240.921 45.632 241.085 45.604 241.245 45.548C241.405 45.492 241.533 45.444 241.629 45.404L241.953 46.676ZM245.829 47V38.48H248.925C249.853 38.48 250.629 38.672 251.253 39.056C251.877 39.432 252.345 39.944 252.657 40.592C252.969 41.232 253.125 41.944 253.125 42.728C253.125 43.592 252.953 44.344 252.609 44.984C252.265 45.624 251.777 46.12 251.145 46.472C250.521 46.824 249.781 47 248.925 47H245.829ZM251.457 42.728C251.457 42.176 251.357 41.692 251.157 41.276C250.957 40.852 250.669 40.524 250.293 40.292C249.917 40.052 249.461 39.932 248.925 39.932H247.485V45.548H248.925C249.469 45.548 249.929 45.428 250.305 45.188C250.681 44.94 250.965 44.604 251.157 44.18C251.357 43.748 251.457 43.264 251.457 42.728ZM257.179 47.12C256.675 47.12 256.219 47.036 255.811 46.868C255.403 46.692 255.055 46.456 254.767 46.16C254.479 45.856 254.255 45.512 254.095 45.128C253.943 44.736 253.867 44.324 253.867 43.892C253.867 43.292 253.999 42.744 254.263 42.248C254.535 41.752 254.919 41.356 255.415 41.06C255.919 40.756 256.511 40.604 257.191 40.604C257.879 40.604 258.467 40.756 258.955 41.06C259.443 41.356 259.815 41.752 260.071 42.248C260.335 42.736 260.467 43.264 260.467 43.832C260.467 43.928 260.463 44.028 260.455 44.132C260.447 44.228 260.439 44.308 260.431 44.372H255.571C255.603 44.692 255.695 44.972 255.847 45.212C256.007 45.452 256.207 45.636 256.447 45.764C256.695 45.884 256.959 45.944 257.239 45.944C257.559 45.944 257.859 45.868 258.139 45.716C258.427 45.556 258.623 45.348 258.727 45.092L260.107 45.476C259.955 45.796 259.735 46.08 259.447 46.328C259.167 46.576 258.835 46.772 258.451 46.916C258.067 47.052 257.643 47.12 257.179 47.12ZM255.535 43.352H258.823C258.791 43.032 258.699 42.756 258.547 42.524C258.403 42.284 258.211 42.1 257.971 41.972C257.731 41.836 257.463 41.768 257.167 41.768C256.879 41.768 256.615 41.836 256.375 41.972C256.143 42.1 255.951 42.284 255.799 42.524C255.655 42.756 255.567 43.032 255.535 43.352ZM263.763 47.12C263.227 47.12 262.715 47.032 262.227 46.856C261.739 46.68 261.319 46.42 260.967 46.076L261.543 45.032C261.919 45.336 262.287 45.56 262.647 45.704C263.015 45.848 263.367 45.92 263.703 45.92C264.015 45.92 264.263 45.864 264.447 45.752C264.639 45.64 264.735 45.472 264.735 45.248C264.735 45.096 264.683 44.98 264.579 44.9C264.475 44.812 264.323 44.736 264.123 44.672C263.931 44.608 263.695 44.536 263.415 44.456C262.951 44.304 262.563 44.156 262.251 44.012C261.939 43.868 261.703 43.688 261.543 43.472C261.391 43.248 261.315 42.964 261.315 42.62C261.315 42.204 261.419 41.848 261.627 41.552C261.843 41.248 262.139 41.012 262.515 40.844C262.899 40.676 263.347 40.592 263.859 40.592C264.307 40.592 264.731 40.664 265.131 40.808C265.531 40.944 265.895 41.168 266.223 41.48L265.575 42.5C265.255 42.252 264.951 42.072 264.663 41.96C264.375 41.84 264.083 41.78 263.787 41.78C263.619 41.78 263.459 41.8 263.307 41.84C263.163 41.88 263.043 41.948 262.947 42.044C262.859 42.132 262.815 42.26 262.815 42.428C262.815 42.58 262.855 42.7 262.935 42.788C263.023 42.868 263.151 42.94 263.319 43.004C263.495 43.068 263.707 43.14 263.955 43.22C264.459 43.364 264.883 43.512 265.227 43.664C265.579 43.816 265.843 44.004 266.019 44.228C266.195 44.444 266.283 44.744 266.283 45.128C266.283 45.752 266.055 46.24 265.599 46.592C265.143 46.944 264.531 47.12 263.763 47.12ZM271.109 46.676C270.973 46.732 270.809 46.796 270.617 46.868C270.425 46.94 270.217 46.996 269.993 47.036C269.777 47.084 269.557 47.108 269.333 47.108C269.037 47.108 268.765 47.056 268.517 46.952C268.269 46.848 268.069 46.684 267.917 46.46C267.773 46.228 267.701 45.928 267.701 45.56V41.948H266.873V40.712H267.701V38.672H269.309V40.712H270.629V41.948H269.309V45.02C269.317 45.236 269.377 45.392 269.489 45.488C269.601 45.584 269.741 45.632 269.909 45.632C270.077 45.632 270.241 45.604 270.401 45.548C270.561 45.492 270.689 45.444 270.785 45.404L271.109 46.676ZM271.947 47V40.712H273.555V47H271.947ZM271.947 39.836V38.24H273.555V39.836H271.947ZM280.849 47H279.241V43.472C279.241 42.968 279.153 42.6 278.977 42.368C278.801 42.136 278.557 42.02 278.245 42.02C278.029 42.02 277.809 42.076 277.585 42.188C277.369 42.3 277.173 42.456 276.997 42.656C276.821 42.848 276.693 43.072 276.613 43.328V47H275.005V40.712H276.457V41.876C276.617 41.604 276.821 41.376 277.069 41.192C277.317 41 277.601 40.856 277.921 40.76C278.249 40.656 278.593 40.604 278.953 40.604C279.345 40.604 279.665 40.676 279.913 40.82C280.169 40.956 280.361 41.144 280.489 41.384C280.625 41.616 280.717 41.88 280.765 42.176C280.821 42.472 280.849 42.772 280.849 43.076V47ZM281.816 45.14C281.816 44.732 281.928 44.376 282.152 44.072C282.384 43.76 282.704 43.52 283.112 43.352C283.52 43.184 283.988 43.1 284.516 43.1C284.78 43.1 285.048 43.12 285.32 43.16C285.592 43.2 285.828 43.264 286.028 43.352V43.016C286.028 42.616 285.908 42.308 285.668 42.092C285.436 41.876 285.088 41.768 284.624 41.768C284.28 41.768 283.952 41.828 283.64 41.948C283.328 42.068 283 42.244 282.656 42.476L282.14 41.42C282.556 41.148 282.98 40.944 283.412 40.808C283.852 40.672 284.312 40.604 284.792 40.604C285.688 40.604 286.384 40.828 286.88 41.276C287.384 41.724 287.636 42.364 287.636 43.196V45.2C287.636 45.368 287.664 45.488 287.72 45.56C287.784 45.632 287.884 45.676 288.02 45.692V47C287.876 47.024 287.744 47.044 287.624 47.06C287.512 47.076 287.416 47.084 287.336 47.084C287.016 47.084 286.772 47.012 286.604 46.868C286.444 46.724 286.344 46.548 286.304 46.34L286.268 46.016C285.996 46.368 285.656 46.64 285.248 46.832C284.84 47.024 284.424 47.12 284 47.12C283.584 47.12 283.208 47.036 282.872 46.868C282.544 46.692 282.284 46.456 282.092 46.16C281.908 45.856 281.816 45.516 281.816 45.14ZM285.728 45.464C285.816 45.368 285.888 45.272 285.944 45.176C286 45.08 286.028 44.992 286.028 44.912V44.276C285.836 44.196 285.628 44.136 285.404 44.096C285.18 44.048 284.968 44.024 284.768 44.024C284.352 44.024 284.008 44.116 283.736 44.3C283.472 44.476 283.34 44.712 283.34 45.008C283.34 45.168 283.384 45.32 283.472 45.464C283.56 45.608 283.688 45.724 283.856 45.812C284.024 45.9 284.224 45.944 284.456 45.944C284.696 45.944 284.932 45.9 285.164 45.812C285.396 45.716 285.584 45.6 285.728 45.464ZM292.848 46.676C292.712 46.732 292.548 46.796 292.356 46.868C292.164 46.94 291.956 46.996 291.732 47.036C291.516 47.084 291.296 47.108 291.072 47.108C290.776 47.108 290.504 47.056 290.256 46.952C290.008 46.848 289.808 46.684 289.656 46.46C289.512 46.228 289.44 45.928 289.44 45.56V41.948H288.612V40.712H289.44V38.672H291.048V40.712H292.368V41.948H291.048V45.02C291.056 45.236 291.116 45.392 291.228 45.488C291.34 45.584 291.48 45.632 291.648 45.632C291.816 45.632 291.98 45.604 292.14 45.548C292.3 45.492 292.428 45.444 292.524 45.404L292.848 46.676ZM293.685 47V40.712H295.293V47H293.685ZM293.685 39.836V38.24H295.293V39.836H293.685ZM299.648 47.12C299.136 47.12 298.676 47.036 298.268 46.868C297.86 46.692 297.512 46.452 297.224 46.148C296.944 45.844 296.728 45.496 296.576 45.104C296.424 44.712 296.348 44.3 296.348 43.868C296.348 43.428 296.424 43.012 296.576 42.62C296.728 42.228 296.944 41.88 297.224 41.576C297.512 41.272 297.86 41.036 298.268 40.868C298.676 40.692 299.136 40.604 299.648 40.604C300.16 40.604 300.616 40.692 301.016 40.868C301.424 41.036 301.772 41.272 302.06 41.576C302.348 41.88 302.564 42.228 302.708 42.62C302.86 43.012 302.936 43.428 302.936 43.868C302.936 44.3 302.86 44.712 302.708 45.104C302.564 45.496 302.348 45.844 302.06 46.148C301.78 46.452 301.436 46.692 301.028 46.868C300.62 47.036 300.16 47.12 299.648 47.12ZM298.004 43.868C298.004 44.236 298.076 44.564 298.22 44.852C298.364 45.132 298.56 45.352 298.808 45.512C299.056 45.672 299.336 45.752 299.648 45.752C299.952 45.752 300.228 45.672 300.476 45.512C300.724 45.344 300.92 45.12 301.064 44.84C301.216 44.552 301.292 44.224 301.292 43.856C301.292 43.496 301.216 43.172 301.064 42.884C300.92 42.596 300.724 42.372 300.476 42.212C300.228 42.052 299.952 41.972 299.648 41.972C299.336 41.972 299.056 42.056 298.808 42.224C298.56 42.384 298.364 42.608 298.22 42.896C298.076 43.176 298.004 43.5 298.004 43.868ZM309.865 47H308.257V43.472C308.257 42.968 308.169 42.6 307.993 42.368C307.817 42.136 307.573 42.02 307.261 42.02C307.045 42.02 306.825 42.076 306.601 42.188C306.385 42.3 306.189 42.456 306.013 42.656C305.837 42.848 305.709 43.072 305.629 43.328V47H304.021V40.712H305.473V41.876C305.633 41.604 305.837 41.376 306.085 41.192C306.333 41 306.617 40.856 306.937 40.76C307.265 40.656 307.609 40.604 307.969 40.604C308.361 40.604 308.681 40.676 308.929 40.82C309.185 40.956 309.377 41.144 309.505 41.384C309.641 41.616 309.733 41.88 309.781 42.176C309.837 42.472 309.865 42.772 309.865 43.076V47Z" fill="#C1C1C1"/>
<rect y="96" width="173" height="48" fill="white"/>
<path d="M21.888 113V104.48H24.984C25.912 104.48 26.688 104.672 27.312 105.056C27.936 105.432 28.404 105.944 28.716 106.592C29.028 107.232 29.184 107.944 29.184 108.728C29.184 109.592 29.012 110.344 28.668 110.984C28.324 111.624 27.836 112.12 27.204 112.472C26.58 112.824 25.84 113 24.984 113H21.888ZM27.516 108.728C27.516 108.176 27.416 107.692 27.216 107.276C27.016 106.852 26.728 106.524 26.352 106.292C25.976 106.052 25.52 105.932 24.984 105.932H23.544V111.548H24.984C25.528 111.548 25.988 111.428 26.364 111.188C26.74 110.94 27.024 110.604 27.216 110.18C27.416 109.748 27.516 109.264 27.516 108.728ZM33.2378 113.12C32.7338 113.12 32.2778 113.036 31.8698 112.868C31.4618 112.692 31.1138 112.456 30.8258 112.16C30.5378 111.856 30.3138 111.512 30.1538 111.128C30.0018 110.736 29.9258 110.324 29.9258 109.892C29.9258 109.292 30.0578 108.744 30.3218 108.248C30.5938 107.752 30.9778 107.356 31.4738 107.06C31.9778 106.756 32.5698 106.604 33.2498 106.604C33.9378 106.604 34.5258 106.756 35.0138 107.06C35.5018 107.356 35.8738 107.752 36.1298 108.248C36.3938 108.736 36.5258 109.264 36.5258 109.832C36.5258 109.928 36.5218 110.028 36.5138 110.132C36.5058 110.228 36.4978 110.308 36.4898 110.372H31.6298C31.6618 110.692 31.7538 110.972 31.9058 111.212C32.0658 111.452 32.2658 111.636 32.5058 111.764C32.7538 111.884 33.0178 111.944 33.2978 111.944C33.6178 111.944 33.9178 111.868 34.1978 111.716C34.4858 111.556 34.6818 111.348 34.7858 111.092L36.1658 111.476C36.0138 111.796 35.7938 112.08 35.5058 112.328C35.2258 112.576 34.8938 112.772 34.5098 112.916C34.1258 113.052 33.7018 113.12 33.2378 113.12ZM31.5938 109.352H34.8818C34.8498 109.032 34.7578 108.756 34.6058 108.524C34.4618 108.284 34.2698 108.1 34.0298 107.972C33.7898 107.836 33.5218 107.768 33.2258 107.768C32.9378 107.768 32.6738 107.836 32.4338 107.972C32.2018 108.1 32.0098 108.284 31.8578 108.524C31.7138 108.756 31.6258 109.032 31.5938 109.352ZM41.2734 113.12C40.7854 113.12 40.3534 113.012 39.9774 112.796C39.6094 112.572 39.3214 112.272 39.1134 111.896V115.556H37.5054V106.712H38.9094V107.792C39.1494 107.424 39.4534 107.136 39.8214 106.928C40.1894 106.712 40.6094 106.604 41.0814 106.604C41.5054 106.604 41.8934 106.688 42.2454 106.856C42.6054 107.024 42.9174 107.26 43.1814 107.564C43.4454 107.86 43.6494 108.204 43.7934 108.596C43.9454 108.98 44.0214 109.396 44.0214 109.844C44.0214 110.452 43.9014 111.004 43.6614 111.5C43.4294 111.996 43.1054 112.392 42.6894 112.688C42.2814 112.976 41.8094 113.12 41.2734 113.12ZM40.7334 111.752C40.9814 111.752 41.2054 111.7 41.4054 111.596C41.6054 111.492 41.7774 111.352 41.9214 111.176C42.0734 110.992 42.1854 110.788 42.2574 110.564C42.3374 110.332 42.3774 110.092 42.3774 109.844C42.3774 109.58 42.3334 109.336 42.2454 109.112C42.1654 108.888 42.0454 108.692 41.8854 108.524C41.7254 108.348 41.5374 108.212 41.3214 108.116C41.1134 108.02 40.8854 107.972 40.6374 107.972C40.4854 107.972 40.3294 108 40.1694 108.056C40.0174 108.104 39.8694 108.176 39.7254 108.272C39.5814 108.368 39.4534 108.48 39.3414 108.608C39.2374 108.736 39.1614 108.876 39.1134 109.028V110.504C39.2094 110.736 39.3374 110.948 39.4974 111.14C39.6654 111.332 39.8574 111.484 40.0734 111.596C40.2894 111.7 40.5094 111.752 40.7334 111.752ZM44.6789 111.14C44.6789 110.732 44.7909 110.376 45.0149 110.072C45.2469 109.76 45.5669 109.52 45.9749 109.352C46.3829 109.184 46.8509 109.1 47.3789 109.1C47.6429 109.1 47.9109 109.12 48.1829 109.16C48.4549 109.2 48.6909 109.264 48.8909 109.352V109.016C48.8909 108.616 48.7709 108.308 48.5309 108.092C48.2989 107.876 47.9509 107.768 47.4869 107.768C47.1429 107.768 46.8149 107.828 46.5029 107.948C46.1909 108.068 45.8629 108.244 45.5189 108.476L45.0029 107.42C45.4189 107.148 45.8429 106.944 46.2749 106.808C46.7149 106.672 47.1749 106.604 47.6549 106.604C48.5509 106.604 49.2469 106.828 49.7429 107.276C50.2469 107.724 50.4989 108.364 50.4989 109.196V111.2C50.4989 111.368 50.5269 111.488 50.5829 111.56C50.6469 111.632 50.7469 111.676 50.8829 111.692V113C50.7389 113.024 50.6069 113.044 50.4869 113.06C50.3749 113.076 50.2789 113.084 50.1989 113.084C49.8789 113.084 49.6349 113.012 49.4669 112.868C49.3069 112.724 49.2069 112.548 49.1669 112.34L49.1309 112.016C48.8589 112.368 48.5189 112.64 48.1109 112.832C47.7029 113.024 47.2869 113.12 46.8629 113.12C46.4469 113.12 46.0709 113.036 45.7349 112.868C45.4069 112.692 45.1469 112.456 44.9549 112.16C44.7709 111.856 44.6789 111.516 44.6789 111.14ZM48.5909 111.464C48.6789 111.368 48.7509 111.272 48.8069 111.176C48.8629 111.08 48.8909 110.992 48.8909 110.912V110.276C48.6989 110.196 48.4909 110.136 48.2669 110.096C48.0429 110.048 47.8309 110.024 47.6309 110.024C47.2149 110.024 46.8709 110.116 46.5989 110.3C46.3349 110.476 46.2029 110.712 46.2029 111.008C46.2029 111.168 46.2469 111.32 46.3349 111.464C46.4229 111.608 46.5509 111.724 46.7189 111.812C46.8869 111.9 47.0869 111.944 47.3189 111.944C47.5589 111.944 47.7949 111.9 48.0269 111.812C48.2589 111.716 48.4469 111.6 48.5909 111.464ZM55.7455 108.104C55.2575 108.104 54.8215 108.2 54.4375 108.392C54.0535 108.576 53.7775 108.844 53.6095 109.196V113H52.0015V106.712H53.4775V108.056C53.7015 107.624 53.9855 107.284 54.3295 107.036C54.6735 106.788 55.0375 106.652 55.4215 106.628C55.5095 106.628 55.5775 106.628 55.6255 106.628C55.6735 106.628 55.7135 106.632 55.7455 106.64V108.104ZM60.4102 112.676C60.2742 112.732 60.1102 112.796 59.9182 112.868C59.7262 112.94 59.5182 112.996 59.2942 113.036C59.0782 113.084 58.8582 113.108 58.6342 113.108C58.3382 113.108 58.0662 113.056 57.8182 112.952C57.5702 112.848 57.3702 112.684 57.2182 112.46C57.0742 112.228 57.0022 111.928 57.0022 111.56V107.948H56.1742V106.712H57.0022V104.672H58.6102V106.712H59.9302V107.948H58.6102V111.02C58.6182 111.236 58.6782 111.392 58.7902 111.488C58.9022 111.584 59.0422 111.632 59.2102 111.632C59.3782 111.632 59.5422 111.604 59.7022 111.548C59.8622 111.492 59.9902 111.444 60.0862 111.404L60.4102 112.676ZM61.1876 110.648V106.712H62.7956V110.3C62.7956 110.78 62.8836 111.144 63.0596 111.392C63.2356 111.632 63.4956 111.752 63.8396 111.752C64.0476 111.752 64.2516 111.712 64.4516 111.632C64.6596 111.544 64.8476 111.416 65.0156 111.248C65.1916 111.08 65.3396 110.868 65.4596 110.612V106.712H67.0676V111.2C67.0676 111.368 67.0956 111.488 67.1516 111.56C67.2156 111.632 67.3156 111.676 67.4516 111.692V113C67.2916 113.024 67.1556 113.04 67.0436 113.048C66.9396 113.064 66.8436 113.072 66.7556 113.072C66.4676 113.072 66.2316 113.008 66.0476 112.88C65.8716 112.744 65.7676 112.56 65.7356 112.328L65.6996 111.824C65.4196 112.248 65.0596 112.572 64.6196 112.796C64.1796 113.012 63.6956 113.12 63.1676 113.12C62.5196 113.12 62.0276 112.912 61.6916 112.496C61.3556 112.072 61.1876 111.456 61.1876 110.648ZM72.4096 108.104C71.9216 108.104 71.4856 108.2 71.1016 108.392C70.7176 108.576 70.4416 108.844 70.2736 109.196V113H68.6656V106.712H70.1416V108.056C70.3656 107.624 70.6496 107.284 70.9936 107.036C71.3376 106.788 71.7016 106.652 72.0856 106.628C72.1736 106.628 72.2416 106.628 72.2896 106.628C72.3376 106.628 72.3776 106.632 72.4096 106.64V108.104ZM76.1402 113.12C75.6362 113.12 75.1802 113.036 74.7722 112.868C74.3642 112.692 74.0162 112.456 73.7282 112.16C73.4402 111.856 73.2162 111.512 73.0562 111.128C72.9042 110.736 72.8282 110.324 72.8282 109.892C72.8282 109.292 72.9602 108.744 73.2242 108.248C73.4962 107.752 73.8802 107.356 74.3762 107.06C74.8802 106.756 75.4722 106.604 76.1522 106.604C76.8402 106.604 77.4282 106.756 77.9162 107.06C78.4042 107.356 78.7762 107.752 79.0322 108.248C79.2962 108.736 79.4282 109.264 79.4282 109.832C79.4282 109.928 79.4242 110.028 79.4162 110.132C79.4082 110.228 79.4002 110.308 79.3922 110.372H74.5322C74.5642 110.692 74.6562 110.972 74.8082 111.212C74.9682 111.452 75.1682 111.636 75.4082 111.764C75.6562 111.884 75.9202 111.944 76.2002 111.944C76.5202 111.944 76.8202 111.868 77.1002 111.716C77.3882 111.556 77.5842 111.348 77.6882 111.092L79.0682 111.476C78.9162 111.796 78.6962 112.08 78.4082 112.328C78.1282 112.576 77.7962 112.772 77.4122 112.916C77.0282 113.052 76.6042 113.12 76.1402 113.12ZM74.4962 109.352H77.7842C77.7522 109.032 77.6602 108.756 77.5082 108.524C77.3642 108.284 77.1722 108.1 76.9322 107.972C76.6922 107.836 76.4242 107.768 76.1282 107.768C75.8402 107.768 75.5762 107.836 75.3362 107.972C75.1042 108.1 74.9122 108.284 74.7602 108.524C74.6162 108.756 74.5282 109.032 74.4962 109.352ZM83.4466 113V104.48H86.5426C87.4706 104.48 88.2466 104.672 88.8706 105.056C89.4946 105.432 89.9626 105.944 90.2746 106.592C90.5866 107.232 90.7426 107.944 90.7426 108.728C90.7426 109.592 90.5706 110.344 90.2266 110.984C89.8826 111.624 89.3946 112.12 88.7626 112.472C88.1386 112.824 87.3986 113 86.5426 113H83.4466ZM89.0746 108.728C89.0746 108.176 88.9746 107.692 88.7746 107.276C88.5746 106.852 88.2866 106.524 87.9106 106.292C87.5346 106.052 87.0786 105.932 86.5426 105.932H85.1026V111.548H86.5426C87.0866 111.548 87.5466 111.428 87.9226 111.188C88.2986 110.94 88.5826 110.604 88.7746 110.18C88.9746 109.748 89.0746 109.264 89.0746 108.728ZM91.3664 111.14C91.3664 110.732 91.4784 110.376 91.7024 110.072C91.9344 109.76 92.2544 109.52 92.6624 109.352C93.0704 109.184 93.5384 109.1 94.0664 109.1C94.3304 109.1 94.5984 109.12 94.8704 109.16C95.1424 109.2 95.3784 109.264 95.5784 109.352V109.016C95.5784 108.616 95.4584 108.308 95.2184 108.092C94.9864 107.876 94.6384 107.768 94.1744 107.768C93.8304 107.768 93.5024 107.828 93.1904 107.948C92.8784 108.068 92.5504 108.244 92.2064 108.476L91.6904 107.42C92.1064 107.148 92.5304 106.944 92.9624 106.808C93.4024 106.672 93.8624 106.604 94.3424 106.604C95.2384 106.604 95.9344 106.828 96.4304 107.276C96.9344 107.724 97.1864 108.364 97.1864 109.196V111.2C97.1864 111.368 97.2144 111.488 97.2704 111.56C97.3344 111.632 97.4344 111.676 97.5704 111.692V113C97.4264 113.024 97.2944 113.044 97.1744 113.06C97.0624 113.076 96.9664 113.084 96.8864 113.084C96.5664 113.084 96.3224 113.012 96.1544 112.868C95.9944 112.724 95.8944 112.548 95.8544 112.34L95.8184 112.016C95.5464 112.368 95.2064 112.64 94.7984 112.832C94.3904 113.024 93.9744 113.12 93.5504 113.12C93.1344 113.12 92.7584 113.036 92.4224 112.868C92.0944 112.692 91.8344 112.456 91.6424 112.16C91.4584 111.856 91.3664 111.516 91.3664 111.14ZM95.2784 111.464C95.3664 111.368 95.4384 111.272 95.4944 111.176C95.5504 111.08 95.5784 110.992 95.5784 110.912V110.276C95.3864 110.196 95.1784 110.136 94.9544 110.096C94.7304 110.048 94.5184 110.024 94.3184 110.024C93.9024 110.024 93.5584 110.116 93.2864 110.3C93.0224 110.476 92.8904 110.712 92.8904 111.008C92.8904 111.168 92.9344 111.32 93.0224 111.464C93.1104 111.608 93.2384 111.724 93.4064 111.812C93.5744 111.9 93.7744 111.944 94.0064 111.944C94.2464 111.944 94.4824 111.9 94.7144 111.812C94.9464 111.716 95.1344 111.6 95.2784 111.464ZM102.398 112.676C102.262 112.732 102.098 112.796 101.906 112.868C101.714 112.94 101.506 112.996 101.282 113.036C101.066 113.084 100.846 113.108 100.622 113.108C100.326 113.108 100.054 113.056 99.8064 112.952C99.5584 112.848 99.3584 112.684 99.2064 112.46C99.0624 112.228 98.9904 111.928 98.9904 111.56V107.948H98.1624V106.712H98.9904V104.672H100.598V106.712H101.918V107.948H100.598V111.02C100.606 111.236 100.666 111.392 100.778 111.488C100.89 111.584 101.03 111.632 101.198 111.632C101.366 111.632 101.53 111.604 101.69 111.548C101.85 111.492 101.978 111.444 102.074 111.404L102.398 112.676ZM106.082 113.12C105.578 113.12 105.122 113.036 104.714 112.868C104.306 112.692 103.958 112.456 103.67 112.16C103.382 111.856 103.158 111.512 102.998 111.128C102.846 110.736 102.77 110.324 102.77 109.892C102.77 109.292 102.902 108.744 103.166 108.248C103.438 107.752 103.822 107.356 104.318 107.06C104.822 106.756 105.414 106.604 106.094 106.604C106.782 106.604 107.37 106.756 107.858 107.06C108.346 107.356 108.718 107.752 108.974 108.248C109.238 108.736 109.37 109.264 109.37 109.832C109.37 109.928 109.366 110.028 109.358 110.132C109.35 110.228 109.342 110.308 109.334 110.372H104.474C104.506 110.692 104.598 110.972 104.75 111.212C104.91 111.452 105.11 111.636 105.35 111.764C105.598 111.884 105.862 111.944 106.142 111.944C106.462 111.944 106.762 111.868 107.042 111.716C107.33 111.556 107.526 111.348 107.63 111.092L109.01 111.476C108.858 111.796 108.638 112.08 108.35 112.328C108.07 112.576 107.738 112.772 107.354 112.916C106.97 113.052 106.546 113.12 106.082 113.12ZM104.438 109.352H107.726C107.694 109.032 107.602 108.756 107.45 108.524C107.306 108.284 107.114 108.1 106.874 107.972C106.634 107.836 106.366 107.768 106.07 107.768C105.782 107.768 105.518 107.836 105.278 107.972C105.046 108.1 104.854 108.284 104.702 108.524C104.558 108.756 104.47 109.032 104.438 109.352Z" fill="#C1C1C1"/>
<path d="M28.455 126.14C28.385 126.07 28.255 125.975 28.065 125.855C27.885 125.735 27.66 125.62 27.39 125.51C27.13 125.4 26.845 125.305 26.535 125.225C26.225 125.135 25.91 125.09 25.59 125.09C25.03 125.09 24.605 125.195 24.315 125.405C24.035 125.615 23.895 125.91 23.895 126.29C23.895 126.58 23.985 126.81 24.165 126.98C24.345 127.15 24.615 127.295 24.975 127.415C25.335 127.535 25.785 127.665 26.325 127.805C27.025 127.975 27.63 128.185 28.14 128.435C28.66 128.675 29.055 128.995 29.325 129.395C29.605 129.785 29.745 130.305 29.745 130.955C29.745 131.525 29.64 132.015 29.43 132.425C29.22 132.825 28.93 133.15 28.56 133.4C28.19 133.65 27.77 133.835 27.3 133.955C26.83 134.065 26.33 134.12 25.8 134.12C25.27 134.12 24.74 134.065 24.21 133.955C23.68 133.845 23.17 133.69 22.68 133.49C22.19 133.28 21.74 133.03 21.33 132.74L22.245 130.955C22.335 131.045 22.495 131.165 22.725 131.315C22.955 131.455 23.235 131.6 23.565 131.75C23.895 131.89 24.255 132.01 24.645 132.11C25.035 132.21 25.43 132.26 25.83 132.26C26.39 132.26 26.815 132.165 27.105 131.975C27.395 131.785 27.54 131.515 27.54 131.165C27.54 130.845 27.425 130.595 27.195 130.415C26.965 130.235 26.645 130.08 26.235 129.95C25.825 129.81 25.34 129.66 24.78 129.5C24.11 129.31 23.55 129.1 23.1 128.87C22.65 128.63 22.315 128.33 22.095 127.97C21.875 127.61 21.765 127.16 21.765 126.62C21.765 125.89 21.935 125.28 22.275 124.79C22.625 124.29 23.095 123.915 23.685 123.665C24.275 123.405 24.93 123.275 25.65 123.275C26.15 123.275 26.62 123.33 27.06 123.44C27.51 123.55 27.93 123.695 28.32 123.875C28.71 124.055 29.06 124.25 29.37 124.46L28.455 126.14ZM34.7592 134.15C34.1292 134.15 33.5592 134.045 33.0492 133.835C32.5392 133.615 32.1042 133.32 31.7442 132.95C31.3842 132.57 31.1042 132.14 30.9042 131.66C30.7142 131.17 30.6192 130.655 30.6192 130.115C30.6192 129.365 30.7842 128.68 31.1142 128.06C31.4542 127.44 31.9342 126.945 32.5542 126.575C33.1842 126.195 33.9242 126.005 34.7742 126.005C35.6342 126.005 36.3692 126.195 36.9792 126.575C37.5892 126.945 38.0542 127.44 38.3742 128.06C38.7042 128.67 38.8692 129.33 38.8692 130.04C38.8692 130.16 38.8642 130.285 38.8542 130.415C38.8442 130.535 38.8342 130.635 38.8242 130.715H32.7492C32.7892 131.115 32.9042 131.465 33.0942 131.765C33.2942 132.065 33.5442 132.295 33.8442 132.455C34.1542 132.605 34.4842 132.68 34.8342 132.68C35.2342 132.68 35.6092 132.585 35.9592 132.395C36.3192 132.195 36.5642 131.935 36.6942 131.615L38.4192 132.095C38.2292 132.495 37.9542 132.85 37.5942 133.16C37.2442 133.47 36.8292 133.715 36.3492 133.895C35.8692 134.065 35.3392 134.15 34.7592 134.15ZM32.7042 129.44H36.8142C36.7742 129.04 36.6592 128.695 36.4692 128.405C36.2892 128.105 36.0492 127.875 35.7492 127.715C35.4492 127.545 35.1142 127.46 34.7442 127.46C34.3842 127.46 34.0542 127.545 33.7542 127.715C33.4642 127.875 33.2242 128.105 33.0342 128.405C32.8542 128.695 32.7442 129.04 32.7042 129.44ZM40.0787 123.05H42.0887V131.48C42.0887 131.84 42.1487 132.085 42.2687 132.215C42.3887 132.335 42.5537 132.395 42.7637 132.395C42.9237 132.395 43.0887 132.375 43.2587 132.335C43.4287 132.295 43.5787 132.245 43.7087 132.185L43.9787 133.715C43.7087 133.845 43.3937 133.945 43.0337 134.015C42.6737 134.085 42.3487 134.12 42.0587 134.12C41.4287 134.12 40.9387 133.955 40.5887 133.625C40.2487 133.285 40.0787 132.805 40.0787 132.185V123.05ZM48.4995 134.15C47.8695 134.15 47.2995 134.045 46.7895 133.835C46.2795 133.615 45.8445 133.32 45.4845 132.95C45.1245 132.57 44.8445 132.14 44.6445 131.66C44.4545 131.17 44.3595 130.655 44.3595 130.115C44.3595 129.365 44.5245 128.68 44.8545 128.06C45.1945 127.44 45.6745 126.945 46.2945 126.575C46.9245 126.195 47.6645 126.005 48.5145 126.005C49.3745 126.005 50.1095 126.195 50.7195 126.575C51.3295 126.945 51.7945 127.44 52.1145 128.06C52.4445 128.67 52.6095 129.33 52.6095 130.04C52.6095 130.16 52.6045 130.285 52.5945 130.415C52.5845 130.535 52.5745 130.635 52.5645 130.715H46.4895C46.5295 131.115 46.6445 131.465 46.8345 131.765C47.0345 132.065 47.2845 132.295 47.5845 132.455C47.8945 132.605 48.2245 132.68 48.5745 132.68C48.9745 132.68 49.3495 132.585 49.6995 132.395C50.0595 132.195 50.3045 131.935 50.4345 131.615L52.1595 132.095C51.9695 132.495 51.6945 132.85 51.3345 133.16C50.9845 133.47 50.5695 133.715 50.0895 133.895C49.6095 134.065 49.0795 134.15 48.4995 134.15ZM46.4445 129.44H50.5545C50.5145 129.04 50.3995 128.695 50.2095 128.405C50.0295 128.105 49.7895 127.875 49.4895 127.715C49.1895 127.545 48.8545 127.46 48.4845 127.46C48.1245 127.46 47.7945 127.545 47.4945 127.715C47.2045 127.875 46.9645 128.105 46.7745 128.405C46.5945 128.695 46.4845 129.04 46.4445 129.44ZM57.4939 134.15C56.8539 134.15 56.2789 134.045 55.7689 133.835C55.2589 133.615 54.8239 133.315 54.4639 132.935C54.1039 132.545 53.8239 132.105 53.6239 131.615C53.4339 131.125 53.3389 130.61 53.3389 130.07C53.3389 129.33 53.5039 128.655 53.8339 128.045C54.1739 127.425 54.6539 126.93 55.2739 126.56C55.8939 126.19 56.6289 126.005 57.4789 126.005C58.3289 126.005 59.0589 126.19 59.6689 126.56C60.2789 126.93 60.7339 127.415 61.0339 128.015L59.0689 128.615C58.8989 128.325 58.6739 128.105 58.3939 127.955C58.1139 127.795 57.8039 127.715 57.4639 127.715C57.0839 127.715 56.7339 127.815 56.4139 128.015C56.1039 128.205 55.8589 128.48 55.6789 128.84C55.4989 129.19 55.4089 129.6 55.4089 130.07C55.4089 130.53 55.4989 130.94 55.6789 131.3C55.8689 131.65 56.1189 131.93 56.4289 132.14C56.7389 132.34 57.0839 132.44 57.4639 132.44C57.7039 132.44 57.9289 132.4 58.1389 132.32C58.3589 132.24 58.5539 132.13 58.7239 131.99C58.8939 131.85 59.0189 131.69 59.0989 131.51L61.0639 132.11C60.8839 132.5 60.6189 132.85 60.2689 133.16C59.9289 133.47 59.5239 133.715 59.0539 133.895C58.5939 134.065 58.0739 134.15 57.4939 134.15ZM67.0107 133.595C66.8407 133.665 66.6357 133.745 66.3957 133.835C66.1557 133.925 65.8957 133.995 65.6157 134.045C65.3457 134.105 65.0707 134.135 64.7907 134.135C64.4207 134.135 64.0807 134.07 63.7707 133.94C63.4607 133.81 63.2107 133.605 63.0207 133.325C62.8407 133.035 62.7507 132.66 62.7507 132.2V127.685H61.7157V126.14H62.7507V123.59H64.7607V126.14H66.4107V127.685H64.7607V131.525C64.7707 131.795 64.8457 131.99 64.9857 132.11C65.1257 132.23 65.3007 132.29 65.5107 132.29C65.7207 132.29 65.9257 132.255 66.1257 132.185C66.3257 132.115 66.4857 132.055 66.6057 132.005L67.0107 133.595ZM71.8561 134V123.35H75.7261C76.8861 123.35 77.8561 123.59 78.6361 124.07C79.4161 124.54 80.0011 125.18 80.3911 125.99C80.7811 126.79 80.9761 127.68 80.9761 128.66C80.9761 129.74 80.7611 130.68 80.3311 131.48C79.9011 132.28 79.2911 132.9 78.5011 133.34C77.7211 133.78 76.7961 134 75.7261 134H71.8561ZM78.8911 128.66C78.8911 127.97 78.7661 127.365 78.5161 126.845C78.2661 126.315 77.9061 125.905 77.4361 125.615C76.9661 125.315 76.3961 125.165 75.7261 125.165H73.9261V132.185H75.7261C76.4061 132.185 76.9811 132.035 77.4511 131.735C77.9211 131.425 78.2761 131.005 78.5161 130.475C78.7661 129.935 78.8911 129.33 78.8911 128.66ZM81.7559 131.675C81.7559 131.165 81.8959 130.72 82.1759 130.34C82.4659 129.95 82.8659 129.65 83.3759 129.44C83.8859 129.23 84.4709 129.125 85.1309 129.125C85.4609 129.125 85.7959 129.15 86.1359 129.2C86.4759 129.25 86.7709 129.33 87.0209 129.44V129.02C87.0209 128.52 86.8709 128.135 86.5709 127.865C86.2809 127.595 85.8459 127.46 85.2659 127.46C84.8359 127.46 84.4259 127.535 84.0359 127.685C83.6459 127.835 83.2359 128.055 82.8059 128.345L82.1609 127.025C82.6809 126.685 83.2109 126.43 83.7509 126.26C84.3009 126.09 84.8759 126.005 85.4759 126.005C86.5959 126.005 87.4659 126.285 88.0859 126.845C88.7159 127.405 89.0309 128.205 89.0309 129.245V131.75C89.0309 131.96 89.0659 132.11 89.1359 132.2C89.2159 132.29 89.3409 132.345 89.5109 132.365V134C89.3309 134.03 89.1659 134.055 89.0159 134.075C88.8759 134.095 88.7559 134.105 88.6559 134.105C88.2559 134.105 87.9509 134.015 87.7409 133.835C87.5409 133.655 87.4159 133.435 87.3659 133.175L87.3209 132.77C86.9809 133.21 86.5559 133.55 86.0459 133.79C85.5359 134.03 85.0159 134.15 84.4859 134.15C83.9659 134.15 83.4959 134.045 83.0759 133.835C82.6659 133.615 82.3409 133.32 82.1009 132.95C81.8709 132.57 81.7559 132.145 81.7559 131.675ZM86.6459 132.08C86.7559 131.96 86.8459 131.84 86.9159 131.72C86.9859 131.6 87.0209 131.49 87.0209 131.39V130.595C86.7809 130.495 86.5209 130.42 86.2409 130.37C85.9609 130.31 85.6959 130.28 85.4459 130.28C84.9259 130.28 84.4959 130.395 84.1559 130.625C83.8259 130.845 83.6609 131.14 83.6609 131.51C83.6609 131.71 83.7159 131.9 83.8259 132.08C83.9359 132.26 84.0959 132.405 84.3059 132.515C84.5159 132.625 84.7659 132.68 85.0559 132.68C85.3559 132.68 85.6509 132.625 85.9409 132.515C86.2309 132.395 86.4659 132.25 86.6459 132.08ZM95.5459 133.595C95.3759 133.665 95.1709 133.745 94.9309 133.835C94.6909 133.925 94.4309 133.995 94.1509 134.045C93.8809 134.105 93.6059 134.135 93.3259 134.135C92.9559 134.135 92.6159 134.07 92.3059 133.94C91.9959 133.81 91.7459 133.605 91.5559 133.325C91.3759 133.035 91.2859 132.66 91.2859 132.2V127.685H90.2509V126.14H91.2859V123.59H93.2959V126.14H94.9459V127.685H93.2959V131.525C93.3059 131.795 93.3809 131.99 93.5209 132.11C93.6609 132.23 93.8359 132.29 94.0459 132.29C94.2559 132.29 94.4609 132.255 94.6609 132.185C94.8609 132.115 95.0209 132.055 95.1409 132.005L95.5459 133.595ZM100.15 134.15C99.5198 134.15 98.9498 134.045 98.4398 133.835C97.9298 133.615 97.4948 133.32 97.1348 132.95C96.7748 132.57 96.4948 132.14 96.2948 131.66C96.1048 131.17 96.0098 130.655 96.0098 130.115C96.0098 129.365 96.1748 128.68 96.5048 128.06C96.8448 127.44 97.3248 126.945 97.9448 126.575C98.5748 126.195 99.3148 126.005 100.165 126.005C101.025 126.005 101.76 126.195 102.37 126.575C102.98 126.945 103.445 127.44 103.765 128.06C104.095 128.67 104.26 129.33 104.26 130.04C104.26 130.16 104.255 130.285 104.245 130.415C104.235 130.535 104.225 130.635 104.215 130.715H98.1398C98.1798 131.115 98.2948 131.465 98.4848 131.765C98.6848 132.065 98.9348 132.295 99.2348 132.455C99.5448 132.605 99.8748 132.68 100.225 132.68C100.625 132.68 101 132.585 101.35 132.395C101.71 132.195 101.955 131.935 102.085 131.615L103.81 132.095C103.62 132.495 103.345 132.85 102.985 133.16C102.635 133.47 102.22 133.715 101.74 133.895C101.26 134.065 100.73 134.15 100.15 134.15ZM98.0948 129.44H102.205C102.165 129.04 102.05 128.695 101.86 128.405C101.68 128.105 101.44 127.875 101.14 127.715C100.84 127.545 100.505 127.46 100.135 127.46C99.7748 127.46 99.4448 127.545 99.1448 127.715C98.8548 127.875 98.6148 128.105 98.4248 128.405C98.2448 128.695 98.1348 129.04 98.0948 129.44Z" fill="black"/>
<rect x="190" y="155" width="174" height="37" fill="white"/>
<path d="M205.337 179V168.35H209.852C210.342 168.35 210.792 168.45 211.202 168.65C211.612 168.85 211.967 169.12 212.267 169.46C212.577 169.8 212.817 170.18 212.987 170.6C213.157 171.02 213.242 171.45 213.242 171.89C213.242 172.49 213.102 173.06 212.822 173.6C212.542 174.14 212.157 174.58 211.667 174.92C211.177 175.26 210.597 175.43 209.927 175.43H207.407V179H205.337ZM207.407 173.615H209.807C210.057 173.615 210.282 173.545 210.482 173.405C210.682 173.265 210.842 173.065 210.962 172.805C211.082 172.535 211.142 172.23 211.142 171.89C211.142 171.52 211.072 171.205 210.932 170.945C210.802 170.685 210.627 170.49 210.407 170.36C210.197 170.23 209.967 170.165 209.717 170.165H207.407V173.615ZM219.167 172.88C218.557 172.88 218.012 173 217.532 173.24C217.052 173.47 216.707 173.805 216.497 174.245V179H214.487V171.14H216.332V172.82C216.612 172.28 216.967 171.855 217.397 171.545C217.827 171.235 218.282 171.065 218.762 171.035C218.872 171.035 218.957 171.035 219.017 171.035C219.077 171.035 219.127 171.04 219.167 171.05V172.88ZM223.816 179.15C223.176 179.15 222.601 179.045 222.091 178.835C221.581 178.615 221.146 178.315 220.786 177.935C220.436 177.555 220.166 177.12 219.976 176.63C219.786 176.14 219.691 175.625 219.691 175.085C219.691 174.535 219.786 174.015 219.976 173.525C220.166 173.035 220.436 172.6 220.786 172.22C221.146 171.84 221.581 171.545 222.091 171.335C222.601 171.115 223.176 171.005 223.816 171.005C224.456 171.005 225.026 171.115 225.526 171.335C226.036 171.545 226.471 171.84 226.831 172.22C227.191 172.6 227.461 173.035 227.641 173.525C227.831 174.015 227.926 174.535 227.926 175.085C227.926 175.625 227.831 176.14 227.641 176.63C227.461 177.12 227.191 177.555 226.831 177.935C226.481 178.315 226.051 178.615 225.541 178.835C225.031 179.045 224.456 179.15 223.816 179.15ZM221.761 175.085C221.761 175.545 221.851 175.955 222.031 176.315C222.211 176.665 222.456 176.94 222.766 177.14C223.076 177.34 223.426 177.44 223.816 177.44C224.196 177.44 224.541 177.34 224.851 177.14C225.161 176.93 225.406 176.65 225.586 176.3C225.776 175.94 225.871 175.53 225.871 175.07C225.871 174.62 225.776 174.215 225.586 173.855C225.406 173.495 225.161 173.215 224.851 173.015C224.541 172.815 224.196 172.715 223.816 172.715C223.426 172.715 223.076 172.82 222.766 173.03C222.456 173.23 222.211 173.51 222.031 173.87C221.851 174.22 221.761 174.625 221.761 175.085ZM241.492 179H239.482V174.59C239.482 173.97 239.372 173.515 239.152 173.225C238.942 172.925 238.647 172.775 238.267 172.775C237.877 172.775 237.502 172.93 237.142 173.24C236.792 173.54 236.542 173.935 236.392 174.425V179H234.382V174.59C234.382 173.96 234.272 173.5 234.052 173.21C233.842 172.92 233.547 172.775 233.167 172.775C232.777 172.775 232.402 172.925 232.042 173.225C231.692 173.525 231.442 173.92 231.292 174.41V179H229.282V171.14H231.097V172.595C231.397 172.085 231.797 171.695 232.297 171.425C232.797 171.145 233.372 171.005 234.022 171.005C234.672 171.005 235.177 171.165 235.537 171.485C235.907 171.805 236.142 172.2 236.242 172.67C236.562 172.13 236.967 171.72 237.457 171.44C237.957 171.15 238.517 171.005 239.137 171.005C239.627 171.005 240.022 171.095 240.322 171.275C240.632 171.445 240.872 171.68 241.042 171.98C241.212 172.27 241.327 172.6 241.387 172.97C241.457 173.34 241.492 173.715 241.492 174.095V179ZM246.872 179.15C246.232 179.15 245.657 179.045 245.147 178.835C244.637 178.615 244.202 178.315 243.842 177.935C243.492 177.555 243.222 177.12 243.032 176.63C242.842 176.14 242.747 175.625 242.747 175.085C242.747 174.535 242.842 174.015 243.032 173.525C243.222 173.035 243.492 172.6 243.842 172.22C244.202 171.84 244.637 171.545 245.147 171.335C245.657 171.115 246.232 171.005 246.872 171.005C247.512 171.005 248.082 171.115 248.582 171.335C249.092 171.545 249.527 171.84 249.887 172.22C250.247 172.6 250.517 173.035 250.697 173.525C250.887 174.015 250.982 174.535 250.982 175.085C250.982 175.625 250.887 176.14 250.697 176.63C250.517 177.12 250.247 177.555 249.887 177.935C249.537 178.315 249.107 178.615 248.597 178.835C248.087 179.045 247.512 179.15 246.872 179.15ZM244.817 175.085C244.817 175.545 244.907 175.955 245.087 176.315C245.267 176.665 245.512 176.94 245.822 177.14C246.132 177.34 246.482 177.44 246.872 177.44C247.252 177.44 247.597 177.34 247.907 177.14C248.217 176.93 248.462 176.65 248.642 176.3C248.832 175.94 248.927 175.53 248.927 175.07C248.927 174.62 248.832 174.215 248.642 173.855C248.462 173.495 248.217 173.215 247.907 173.015C247.597 172.815 247.252 172.715 246.872 172.715C246.482 172.715 246.132 172.82 245.822 173.03C245.512 173.23 245.267 173.51 245.087 173.87C244.907 174.22 244.817 174.625 244.817 175.085ZM259.602 179.15C258.962 179.15 258.387 179.045 257.877 178.835C257.367 178.615 256.932 178.315 256.572 177.935C256.212 177.545 255.932 177.105 255.732 176.615C255.542 176.125 255.447 175.61 255.447 175.07C255.447 174.33 255.612 173.655 255.942 173.045C256.282 172.425 256.762 171.93 257.382 171.56C258.002 171.19 258.737 171.005 259.587 171.005C260.437 171.005 261.167 171.19 261.777 171.56C262.387 171.93 262.842 172.415 263.142 173.015L261.177 173.615C261.007 173.325 260.782 173.105 260.502 172.955C260.222 172.795 259.912 172.715 259.572 172.715C259.192 172.715 258.842 172.815 258.522 173.015C258.212 173.205 257.967 173.48 257.787 173.84C257.607 174.19 257.517 174.6 257.517 175.07C257.517 175.53 257.607 175.94 257.787 176.3C257.977 176.65 258.227 176.93 258.537 177.14C258.847 177.34 259.192 177.44 259.572 177.44C259.812 177.44 260.037 177.4 260.247 177.32C260.467 177.24 260.662 177.13 260.832 176.99C261.002 176.85 261.127 176.69 261.207 176.51L263.172 177.11C262.992 177.5 262.727 177.85 262.377 178.16C262.037 178.47 261.632 178.715 261.162 178.895C260.702 179.065 260.182 179.15 259.602 179.15ZM267.966 179.15C267.326 179.15 266.751 179.045 266.241 178.835C265.731 178.615 265.296 178.315 264.936 177.935C264.586 177.555 264.316 177.12 264.126 176.63C263.936 176.14 263.841 175.625 263.841 175.085C263.841 174.535 263.936 174.015 264.126 173.525C264.316 173.035 264.586 172.6 264.936 172.22C265.296 171.84 265.731 171.545 266.241 171.335C266.751 171.115 267.326 171.005 267.966 171.005C268.606 171.005 269.176 171.115 269.676 171.335C270.186 171.545 270.621 171.84 270.981 172.22C271.341 172.6 271.611 173.035 271.791 173.525C271.981 174.015 272.076 174.535 272.076 175.085C272.076 175.625 271.981 176.14 271.791 176.63C271.611 177.12 271.341 177.555 270.981 177.935C270.631 178.315 270.201 178.615 269.691 178.835C269.181 179.045 268.606 179.15 267.966 179.15ZM265.911 175.085C265.911 175.545 266.001 175.955 266.181 176.315C266.361 176.665 266.606 176.94 266.916 177.14C267.226 177.34 267.576 177.44 267.966 177.44C268.346 177.44 268.691 177.34 269.001 177.14C269.311 176.93 269.556 176.65 269.736 176.3C269.926 175.94 270.021 175.53 270.021 175.07C270.021 174.62 269.926 174.215 269.736 173.855C269.556 173.495 269.311 173.215 269.001 173.015C268.691 172.815 268.346 172.715 267.966 172.715C267.576 172.715 267.226 172.82 266.916 173.03C266.606 173.23 266.361 173.51 266.181 173.87C266.001 174.22 265.911 174.625 265.911 175.085ZM272.953 175.07C272.953 174.31 273.103 173.625 273.403 173.015C273.703 172.395 274.118 171.905 274.648 171.545C275.178 171.185 275.783 171.005 276.463 171.005C277.043 171.005 277.563 171.15 278.023 171.44C278.493 171.72 278.858 172.08 279.118 172.52V168.05H281.128V176.75C281.128 176.96 281.163 177.11 281.233 177.2C281.303 177.29 281.423 177.345 281.593 177.365V179C281.243 179.07 280.958 179.105 280.738 179.105C280.378 179.105 280.078 179.015 279.838 178.835C279.608 178.655 279.478 178.42 279.448 178.13L279.418 177.635C279.128 178.125 278.733 178.5 278.233 178.76C277.743 179.02 277.228 179.15 276.688 179.15C276.148 179.15 275.648 179.045 275.188 178.835C274.738 178.625 274.343 178.335 274.003 177.965C273.673 177.595 273.413 177.165 273.223 176.675C273.043 176.175 272.953 175.64 272.953 175.07ZM279.118 176.12V174.245C279.018 173.955 278.858 173.695 278.638 173.465C278.418 173.235 278.173 173.055 277.903 172.925C277.633 172.785 277.363 172.715 277.093 172.715C276.783 172.715 276.503 172.78 276.253 172.91C276.003 173.04 275.783 173.215 275.593 173.435C275.413 173.655 275.273 173.91 275.173 174.2C275.083 174.49 275.038 174.795 275.038 175.115C275.038 175.435 275.088 175.74 275.188 176.03C275.298 176.31 275.453 176.555 275.653 176.765C275.853 176.975 276.083 177.14 276.343 177.26C276.613 177.38 276.903 177.44 277.213 177.44C277.403 177.44 277.593 177.41 277.783 177.35C277.983 177.28 278.168 177.19 278.338 177.08C278.518 176.96 278.673 176.82 278.803 176.66C278.943 176.49 279.048 176.31 279.118 176.12ZM286.746 179.15C286.116 179.15 285.546 179.045 285.036 178.835C284.526 178.615 284.091 178.32 283.731 177.95C283.371 177.57 283.091 177.14 282.891 176.66C282.701 176.17 282.606 175.655 282.606 175.115C282.606 174.365 282.771 173.68 283.101 173.06C283.441 172.44 283.921 171.945 284.541 171.575C285.171 171.195 285.911 171.005 286.761 171.005C287.621 171.005 288.356 171.195 288.966 171.575C289.576 171.945 290.041 172.44 290.361 173.06C290.691 173.67 290.856 174.33 290.856 175.04C290.856 175.16 290.851 175.285 290.841 175.415C290.831 175.535 290.821 175.635 290.811 175.715H284.736C284.776 176.115 284.891 176.465 285.081 176.765C285.281 177.065 285.531 177.295 285.831 177.455C286.141 177.605 286.471 177.68 286.821 177.68C287.221 177.68 287.596 177.585 287.946 177.395C288.306 177.195 288.551 176.935 288.681 176.615L290.406 177.095C290.216 177.495 289.941 177.85 289.581 178.16C289.231 178.47 288.816 178.715 288.336 178.895C287.856 179.065 287.326 179.15 286.746 179.15ZM284.691 174.44H288.801C288.761 174.04 288.646 173.695 288.456 173.405C288.276 173.105 288.036 172.875 287.736 172.715C287.436 172.545 287.101 172.46 286.731 172.46C286.371 172.46 286.041 172.545 285.741 172.715C285.451 172.875 285.211 173.105 285.021 173.405C284.841 173.695 284.731 174.04 284.691 174.44Z" fill="black"/>
<rect y="155" width="173" height="37" fill="white"/>
<path d="M32.28 162.32H33.128L35.336 168H34.392L33.792 166.456H31.6L31.008 168H30.056L32.28 162.32ZM33.616 165.792L32.704 163.304L31.76 165.792H33.616ZM35.5452 165.912C35.5452 165.512 35.6253 165.149 35.7853 164.824C35.9506 164.493 36.1746 164.232 36.4572 164.04C36.7399 163.843 37.0653 163.744 37.4333 163.744C37.7533 163.744 38.0413 163.827 38.2973 163.992C38.5586 164.157 38.7613 164.363 38.9053 164.608V162.16H39.7853V167.008C39.7853 167.109 39.8039 167.181 39.8413 167.224C39.8786 167.267 39.9399 167.291 40.0253 167.296V168C39.8599 168.027 39.7319 168.04 39.6413 168.04C39.4759 168.04 39.3346 167.992 39.2173 167.896C39.1053 167.8 39.0466 167.685 39.0413 167.552L39.0333 167.24C38.8733 167.507 38.6573 167.715 38.3853 167.864C38.1133 168.008 37.8306 168.08 37.5373 168.08C37.2493 168.08 36.9826 168.024 36.7373 167.912C36.4973 167.8 36.2866 167.643 36.1053 167.44C35.9293 167.237 35.7906 167.005 35.6893 166.744C35.5933 166.483 35.5452 166.205 35.5452 165.912ZM38.9053 166.496V165.4C38.8466 165.229 38.7506 165.077 38.6173 164.944C38.4893 164.805 38.3426 164.696 38.1773 164.616C38.0173 164.536 37.8573 164.496 37.6973 164.496C37.5106 164.496 37.3399 164.536 37.1853 164.616C37.0359 164.696 36.9053 164.803 36.7933 164.936C36.6866 165.069 36.6039 165.221 36.5453 165.392C36.4866 165.563 36.4572 165.741 36.4572 165.928C36.4572 166.12 36.4893 166.301 36.5533 166.472C36.6173 166.637 36.7079 166.787 36.8253 166.92C36.9479 167.048 37.0866 167.149 37.2413 167.224C37.4013 167.293 37.5746 167.328 37.7613 167.328C37.8786 167.328 37.9959 167.307 38.1133 167.264C38.2359 167.221 38.3506 167.163 38.4573 167.088C38.5693 167.013 38.6626 166.925 38.7373 166.824C38.8173 166.723 38.8733 166.613 38.9053 166.496ZM40.863 166.376V163.816H41.743V166.2C41.743 166.573 41.8097 166.856 41.943 167.048C42.0817 167.235 42.2817 167.328 42.543 167.328C42.7083 167.328 42.8683 167.293 43.023 167.224C43.183 167.155 43.327 167.053 43.455 166.92C43.5883 166.781 43.695 166.616 43.775 166.424V163.816H44.655V167.008C44.655 167.109 44.6737 167.181 44.711 167.224C44.7483 167.267 44.8097 167.291 44.895 167.296V168C44.8043 168.016 44.7297 168.027 44.671 168.032C44.6123 168.037 44.5563 168.04 44.503 168.04C44.343 168.04 44.2097 167.997 44.103 167.912C43.9963 167.821 43.935 167.707 43.919 167.568L43.903 167.152C43.7163 167.456 43.4737 167.688 43.175 167.848C42.8763 168.003 42.5483 168.08 42.191 168.08C41.7537 168.08 41.423 167.936 41.199 167.648C40.975 167.36 40.863 166.936 40.863 166.376ZM45.786 162.16H46.666V166.792C46.666 167.005 46.698 167.141 46.762 167.2C46.826 167.259 46.906 167.288 47.002 167.288C47.1087 167.288 47.2073 167.277 47.298 167.256C47.394 167.235 47.4767 167.208 47.546 167.176L47.674 167.872C47.546 167.925 47.394 167.971 47.218 168.008C47.042 168.045 46.8847 168.064 46.746 168.064C46.4473 168.064 46.2127 167.981 46.042 167.816C45.8713 167.645 45.786 167.411 45.786 167.112V162.16ZM50.4888 167.784C50.4141 167.821 50.3208 167.861 50.2088 167.904C50.0968 167.947 49.9688 167.984 49.8248 168.016C49.6861 168.048 49.5421 168.064 49.3928 168.064C49.2115 168.064 49.0435 168.032 48.8888 167.968C48.7341 167.904 48.6088 167.803 48.5128 167.664C48.4221 167.52 48.3768 167.336 48.3768 167.112V164.496H47.8248V163.816H48.3768V162.44H49.2568V163.816H50.1688V164.496H49.2568V166.832C49.2675 166.976 49.3128 167.083 49.3928 167.152C49.4781 167.221 49.5821 167.256 49.7048 167.256C49.8275 167.256 49.9448 167.235 50.0568 167.192C50.1688 167.149 50.2515 167.115 50.3048 167.088L50.4888 167.784Z" fill="#C1C1C1"/>
<path d="M83.28 165.12C83.28 164.773 83.3413 164.435 83.464 164.104C83.5867 163.768 83.7653 163.464 84 163.192C84.24 162.915 84.5307 162.696 84.872 162.536C85.2133 162.371 85.6 162.288 86.032 162.288C86.544 162.288 86.9867 162.405 87.36 162.64C87.7333 162.869 88.0107 163.165 88.192 163.528L87.488 164C87.3813 163.771 87.2453 163.589 87.08 163.456C86.92 163.323 86.744 163.229 86.552 163.176C86.3653 163.123 86.1813 163.096 86 163.096C85.7013 163.096 85.44 163.157 85.216 163.28C84.992 163.397 84.8027 163.555 84.648 163.752C84.4987 163.949 84.384 164.171 84.304 164.416C84.2293 164.661 84.192 164.907 84.192 165.152C84.192 165.424 84.2373 165.688 84.328 165.944C84.4187 166.195 84.544 166.419 84.704 166.616C84.8693 166.808 85.064 166.96 85.288 167.072C85.512 167.184 85.7573 167.24 86.024 167.24C86.2053 167.24 86.3947 167.208 86.592 167.144C86.7893 167.08 86.9707 166.981 87.136 166.848C87.3067 166.709 87.44 166.528 87.536 166.304L88.28 166.728C88.1627 167.011 87.9787 167.251 87.728 167.448C87.4827 167.645 87.2053 167.795 86.896 167.896C86.592 167.997 86.2907 168.048 85.992 168.048C85.592 168.048 85.2267 167.965 84.896 167.8C84.5653 167.629 84.28 167.405 84.04 167.128C83.8 166.845 83.6133 166.531 83.48 166.184C83.3467 165.832 83.28 165.477 83.28 165.12ZM92.7488 168H91.8688V165.656C91.8688 165.277 91.7994 164.995 91.6608 164.808C91.5221 164.621 91.3274 164.528 91.0768 164.528C90.9221 164.528 90.7621 164.571 90.5968 164.656C90.4314 164.741 90.2848 164.859 90.1568 165.008C90.0288 165.152 89.9354 165.32 89.8768 165.512V168H88.9967V162.16H89.8768V164.656C90.0368 164.373 90.2554 164.152 90.5328 163.992C90.8101 163.827 91.1088 163.744 91.4288 163.744C91.6901 163.744 91.9061 163.789 92.0768 163.88C92.2474 163.971 92.3808 164.096 92.4768 164.256C92.5781 164.411 92.6474 164.592 92.6848 164.8C92.7274 165.003 92.7488 165.219 92.7488 165.448V168ZM93.7702 168V163.816H94.6502V168H93.7702ZM93.7702 163.128V162.16H94.6502V163.128H93.7702ZM95.7157 162.16H96.5957V166.792C96.5957 167.005 96.6277 167.141 96.6917 167.2C96.7557 167.259 96.8357 167.288 96.9317 167.288C97.0384 167.288 97.137 167.277 97.2277 167.256C97.3237 167.235 97.4064 167.208 97.4757 167.176L97.6037 167.872C97.4757 167.925 97.3237 167.971 97.1477 168.008C96.9717 168.045 96.8144 168.064 96.6757 168.064C96.377 168.064 96.1424 167.981 95.9717 167.816C95.801 167.645 95.7157 167.411 95.7157 167.112V162.16ZM97.8499 165.912C97.8499 165.512 97.9299 165.149 98.0899 164.824C98.2553 164.493 98.4793 164.232 98.7619 164.04C99.0446 163.843 99.3699 163.744 99.7379 163.744C100.058 163.744 100.346 163.827 100.602 163.992C100.863 164.157 101.066 164.363 101.21 164.608V162.16H102.09V167.008C102.09 167.109 102.109 167.181 102.146 167.224C102.183 167.267 102.245 167.291 102.33 167.296V168C102.165 168.027 102.037 168.04 101.946 168.04C101.781 168.04 101.639 167.992 101.522 167.896C101.41 167.8 101.351 167.685 101.346 167.552L101.338 167.24C101.178 167.507 100.962 167.715 100.69 167.864C100.418 168.008 100.135 168.08 99.8419 168.08C99.5539 168.08 99.2873 168.024 99.0419 167.912C98.8019 167.8 98.5913 167.643 98.4099 167.44C98.2339 167.237 98.0953 167.005 97.9939 166.744C97.8979 166.483 97.8499 166.205 97.8499 165.912ZM101.21 166.496V165.4C101.151 165.229 101.055 165.077 100.922 164.944C100.794 164.805 100.647 164.696 100.482 164.616C100.322 164.536 100.162 164.496 100.002 164.496C99.8153 164.496 99.6446 164.536 99.4899 164.616C99.3406 164.696 99.2099 164.803 99.0979 164.936C98.9913 165.069 98.9086 165.221 98.8499 165.392C98.7913 165.563 98.7619 165.741 98.7619 165.928C98.7619 166.12 98.7939 166.301 98.8579 166.472C98.9219 166.637 99.0126 166.787 99.1299 166.92C99.2526 167.048 99.3913 167.149 99.5459 167.224C99.7059 167.293 99.8793 167.328 100.066 167.328C100.183 167.328 100.301 167.307 100.418 167.264C100.541 167.221 100.655 167.163 100.762 167.088C100.874 167.013 100.967 166.925 101.042 166.824C101.122 166.723 101.178 166.613 101.21 166.496Z" fill="#C1C1C1"/>
<path d="M136.64 168V162.32H137.536V168H136.64ZM142.46 168H141.58V165.656C141.58 165.267 141.516 164.981 141.388 164.8C141.265 164.619 141.081 164.528 140.836 164.528C140.665 164.528 140.494 164.571 140.324 164.656C140.158 164.741 140.009 164.859 139.876 165.008C139.742 165.152 139.646 165.32 139.588 165.512V168H138.708V163.816H139.508V164.656C139.614 164.469 139.753 164.309 139.924 164.176C140.1 164.037 140.297 163.931 140.516 163.856C140.734 163.781 140.966 163.744 141.212 163.744C141.462 163.744 141.668 163.789 141.828 163.88C141.993 163.971 142.121 164.096 142.212 164.256C142.308 164.411 142.372 164.592 142.404 164.8C142.441 165.003 142.46 165.219 142.46 165.448V168ZM143.69 168V164.6H143.13V163.92H143.69V163.752C143.69 163.411 143.743 163.115 143.85 162.864C143.962 162.613 144.117 162.421 144.314 162.288C144.517 162.149 144.754 162.08 145.026 162.08C145.197 162.08 145.365 162.104 145.53 162.152C145.695 162.195 145.853 162.256 146.002 162.336L145.81 162.992C145.73 162.939 145.634 162.899 145.522 162.872C145.415 162.84 145.311 162.824 145.21 162.824C145.007 162.824 144.85 162.901 144.738 163.056C144.626 163.211 144.57 163.435 144.57 163.728V163.92H145.642V164.6H144.57V168H143.69ZM145.99 166.776C145.99 166.509 146.064 166.277 146.214 166.08C146.368 165.877 146.579 165.723 146.846 165.616C147.112 165.504 147.422 165.448 147.774 165.448C147.96 165.448 148.15 165.461 148.342 165.488C148.539 165.515 148.712 165.557 148.862 165.616V165.352C148.862 165.059 148.774 164.829 148.598 164.664C148.422 164.499 148.168 164.416 147.838 164.416C147.603 164.416 147.382 164.459 147.174 164.544C146.966 164.624 146.744 164.739 146.51 164.888L146.214 164.296C146.491 164.109 146.768 163.971 147.046 163.88C147.328 163.789 147.624 163.744 147.934 163.744C148.494 163.744 148.934 163.893 149.254 164.192C149.579 164.485 149.742 164.904 149.742 165.448V167.008C149.742 167.109 149.758 167.181 149.79 167.224C149.827 167.267 149.888 167.291 149.974 167.296V168C149.894 168.016 149.822 168.027 149.758 168.032C149.694 168.037 149.64 168.04 149.598 168.04C149.411 168.04 149.27 167.995 149.174 167.904C149.078 167.813 149.022 167.707 149.006 167.584L148.982 167.344C148.8 167.579 148.568 167.76 148.286 167.888C148.003 168.016 147.718 168.08 147.43 168.08C147.152 168.08 146.904 168.024 146.686 167.912C146.467 167.795 146.296 167.637 146.174 167.44C146.051 167.243 145.99 167.021 145.99 166.776ZM148.654 167.032C148.718 166.963 148.768 166.893 148.806 166.824C148.843 166.755 148.862 166.693 148.862 166.64V166.16C148.712 166.101 148.555 166.059 148.39 166.032C148.224 166 148.062 165.984 147.902 165.984C147.582 165.984 147.32 166.048 147.118 166.176C146.92 166.304 146.822 166.48 146.822 166.704C146.822 166.827 146.854 166.944 146.918 167.056C146.987 167.168 147.083 167.259 147.206 167.328C147.334 167.397 147.491 167.432 147.678 167.432C147.87 167.432 148.054 167.395 148.23 167.32C148.406 167.245 148.547 167.149 148.654 167.032ZM150.769 168V166.976H151.497V168H150.769ZM152.472 168V166.976H153.2V168H152.472ZM154.176 168V166.976H154.904V168H154.176Z" fill="#C1C1C1"/>
<path d="M36.705 182.515V184H30.975V182.515H33.105V177.28C33.015 177.4 32.875 177.525 32.685 177.655C32.495 177.785 32.28 177.91 32.04 178.03C31.81 178.14 31.575 178.23 31.335 178.3C31.095 178.37 30.875 178.405 30.675 178.405V176.86C30.875 176.86 31.105 176.8 31.365 176.68C31.625 176.56 31.88 176.42 32.13 176.26C32.39 176.09 32.61 175.93 32.79 175.78C32.97 175.62 33.075 175.505 33.105 175.435H34.8V182.515H36.705Z" fill="black"/>
<path d="M91.445 179.605C91.445 180.485 91.275 181.27 90.935 181.96C90.605 182.64 90.15 183.175 89.57 183.565C89 183.955 88.345 184.15 87.605 184.15C86.875 184.15 86.22 183.955 85.64 183.565C85.06 183.175 84.6 182.64 84.26 181.96C83.93 181.27 83.765 180.485 83.765 179.605C83.765 178.725 83.93 177.945 84.26 177.265C84.6 176.575 85.06 176.035 85.64 175.645C86.22 175.245 86.875 175.045 87.605 175.045C88.345 175.045 89 175.245 89.57 175.645C90.15 176.035 90.605 176.575 90.935 177.265C91.275 177.945 91.445 178.725 91.445 179.605ZM89.765 179.605C89.765 179.005 89.675 178.48 89.495 178.03C89.315 177.57 89.06 177.215 88.73 176.965C88.4 176.705 88.025 176.575 87.605 176.575C87.175 176.575 86.795 176.705 86.465 176.965C86.135 177.215 85.875 177.57 85.685 178.03C85.505 178.48 85.415 179.005 85.415 179.605C85.415 180.205 85.505 180.73 85.685 181.18C85.875 181.63 86.135 181.985 86.465 182.245C86.795 182.495 87.175 182.62 87.605 182.62C88.025 182.62 88.395 182.495 88.715 182.245C89.045 181.985 89.3 181.63 89.48 181.18C89.67 180.73 89.765 180.205 89.765 179.605Z" fill="black"/>
<path d="M144.445 179.605C144.445 180.485 144.275 181.27 143.935 181.96C143.605 182.64 143.15 183.175 142.57 183.565C142 183.955 141.345 184.15 140.605 184.15C139.875 184.15 139.22 183.955 138.64 183.565C138.06 183.175 137.6 182.64 137.26 181.96C136.93 181.27 136.765 180.485 136.765 179.605C136.765 178.725 136.93 177.945 137.26 177.265C137.6 176.575 138.06 176.035 138.64 175.645C139.22 175.245 139.875 175.045 140.605 175.045C141.345 175.045 142 175.245 142.57 175.645C143.15 176.035 143.605 176.575 143.935 177.265C144.275 177.945 144.445 178.725 144.445 179.605ZM142.765 179.605C142.765 179.005 142.675 178.48 142.495 178.03C142.315 177.57 142.06 177.215 141.73 176.965C141.4 176.705 141.025 176.575 140.605 176.575C140.175 176.575 139.795 176.705 139.465 176.965C139.135 177.215 138.875 177.57 138.685 178.03C138.505 178.48 138.415 179.005 138.415 179.605C138.415 180.205 138.505 180.73 138.685 181.18C138.875 181.63 139.135 181.985 139.465 182.245C139.795 182.495 140.175 182.62 140.605 182.62C141.025 182.62 141.395 182.495 141.715 182.245C142.045 181.985 142.3 181.63 142.48 181.18C142.67 180.73 142.765 180.205 142.765 179.605Z" fill="black"/>
<rect x="190" y="96" width="174" height="48" fill="white"/>
<path d="M206.208 113V104.48H209.976C210.368 104.48 210.728 104.56 211.056 104.72C211.392 104.88 211.68 105.096 211.92 105.368C212.168 105.64 212.356 105.944 212.484 106.28C212.62 106.616 212.688 106.96 212.688 107.312C212.688 107.672 212.624 108.02 212.496 108.356C212.376 108.684 212.2 108.972 211.968 109.22C211.736 109.468 211.464 109.66 211.152 109.796L213.096 113H211.272L209.52 110.144H207.864V113H206.208ZM207.864 108.692H209.94C210.148 108.692 210.332 108.632 210.492 108.512C210.652 108.384 210.78 108.216 210.876 108.008C210.972 107.8 211.02 107.568 211.02 107.312C211.02 107.04 210.964 106.804 210.852 106.604C210.74 106.396 210.596 106.232 210.42 106.112C210.252 105.992 210.068 105.932 209.868 105.932H207.864V108.692ZM216.738 113.12C216.234 113.12 215.778 113.036 215.37 112.868C214.962 112.692 214.614 112.456 214.326 112.16C214.038 111.856 213.814 111.512 213.654 111.128C213.502 110.736 213.426 110.324 213.426 109.892C213.426 109.292 213.558 108.744 213.822 108.248C214.094 107.752 214.478 107.356 214.974 107.06C215.478 106.756 216.07 106.604 216.75 106.604C217.438 106.604 218.026 106.756 218.514 107.06C219.002 107.356 219.374 107.752 219.63 108.248C219.894 108.736 220.026 109.264 220.026 109.832C220.026 109.928 220.022 110.028 220.014 110.132C220.006 110.228 219.998 110.308 219.99 110.372H215.13C215.162 110.692 215.254 110.972 215.406 111.212C215.566 111.452 215.766 111.636 216.006 111.764C216.254 111.884 216.518 111.944 216.798 111.944C217.118 111.944 217.418 111.868 217.698 111.716C217.986 111.556 218.182 111.348 218.286 111.092L219.666 111.476C219.514 111.796 219.294 112.08 219.006 112.328C218.726 112.576 218.394 112.772 218.01 112.916C217.626 113.052 217.202 113.12 216.738 113.12ZM215.094 109.352H218.382C218.35 109.032 218.258 108.756 218.106 108.524C217.962 108.284 217.77 108.1 217.53 107.972C217.29 107.836 217.022 107.768 216.726 107.768C216.438 107.768 216.174 107.836 215.934 107.972C215.702 108.1 215.51 108.284 215.358 108.524C215.214 108.756 215.126 109.032 215.094 109.352ZM224.715 112.676C224.579 112.732 224.415 112.796 224.223 112.868C224.031 112.94 223.823 112.996 223.599 113.036C223.383 113.084 223.163 113.108 222.939 113.108C222.643 113.108 222.371 113.056 222.123 112.952C221.875 112.848 221.675 112.684 221.523 112.46C221.379 112.228 221.307 111.928 221.307 111.56V107.948H220.479V106.712H221.307V104.672H222.915V106.712H224.235V107.948H222.915V111.02C222.923 111.236 222.983 111.392 223.095 111.488C223.207 111.584 223.347 111.632 223.515 111.632C223.683 111.632 223.847 111.604 224.007 111.548C224.167 111.492 224.295 111.444 224.391 111.404L224.715 112.676ZM225.492 110.648V106.712H227.1V110.3C227.1 110.78 227.188 111.144 227.364 111.392C227.54 111.632 227.8 111.752 228.144 111.752C228.352 111.752 228.556 111.712 228.756 111.632C228.964 111.544 229.152 111.416 229.32 111.248C229.496 111.08 229.644 110.868 229.764 110.612V106.712H231.372V111.2C231.372 111.368 231.4 111.488 231.456 111.56C231.52 111.632 231.62 111.676 231.756 111.692V113C231.596 113.024 231.46 113.04 231.348 113.048C231.244 113.064 231.148 113.072 231.06 113.072C230.772 113.072 230.536 113.008 230.352 112.88C230.176 112.744 230.072 112.56 230.04 112.328L230.004 111.824C229.724 112.248 229.364 112.572 228.924 112.796C228.484 113.012 228 113.12 227.472 113.12C226.824 113.12 226.332 112.912 225.996 112.496C225.66 112.072 225.492 111.456 225.492 110.648ZM236.714 108.104C236.226 108.104 235.79 108.2 235.406 108.392C235.022 108.576 234.746 108.844 234.578 109.196V113H232.97V106.712H234.446V108.056C234.67 107.624 234.954 107.284 235.298 107.036C235.642 106.788 236.006 106.652 236.39 106.628C236.478 106.628 236.546 106.628 236.594 106.628C236.642 106.628 236.682 106.632 236.714 106.64V108.104ZM243.455 113H241.847V109.472C241.847 108.968 241.759 108.6 241.583 108.368C241.407 108.136 241.163 108.02 240.851 108.02C240.635 108.02 240.415 108.076 240.191 108.188C239.975 108.3 239.779 108.456 239.603 108.656C239.427 108.848 239.299 109.072 239.219 109.328V113H237.611V106.712H239.063V107.876C239.223 107.604 239.427 107.376 239.675 107.192C239.923 107 240.207 106.856 240.527 106.76C240.855 106.656 241.199 106.604 241.559 106.604C241.951 106.604 242.271 106.676 242.519 106.82C242.775 106.956 242.967 107.144 243.095 107.384C243.231 107.616 243.323 107.88 243.371 108.176C243.427 108.472 243.455 108.772 243.455 109.076V113ZM247.352 109.856C247.352 109.248 247.472 108.7 247.712 108.212C247.952 107.716 248.284 107.324 248.708 107.036C249.132 106.748 249.616 106.604 250.16 106.604C250.624 106.604 251.04 106.72 251.408 106.952C251.784 107.176 252.076 107.464 252.284 107.816V104.24H253.892V111.2C253.892 111.368 253.92 111.488 253.976 111.56C254.032 111.632 254.128 111.676 254.264 111.692V113C253.984 113.056 253.756 113.084 253.58 113.084C253.292 113.084 253.052 113.012 252.86 112.868C252.676 112.724 252.572 112.536 252.548 112.304L252.524 111.908C252.292 112.3 251.976 112.6 251.576 112.808C251.184 113.016 250.772 113.12 250.34 113.12C249.908 113.12 249.508 113.036 249.14 112.868C248.78 112.7 248.464 112.468 248.192 112.172C247.928 111.876 247.72 111.532 247.568 111.14C247.424 110.74 247.352 110.312 247.352 109.856ZM252.284 110.696V109.196C252.204 108.964 252.076 108.756 251.9 108.572C251.724 108.388 251.528 108.244 251.312 108.14C251.096 108.028 250.88 107.972 250.664 107.972C250.416 107.972 250.192 108.024 249.992 108.128C249.792 108.232 249.616 108.372 249.464 108.548C249.32 108.724 249.208 108.928 249.128 109.16C249.056 109.392 249.02 109.636 249.02 109.892C249.02 110.148 249.06 110.392 249.14 110.624C249.228 110.848 249.352 111.044 249.512 111.212C249.672 111.38 249.856 111.512 250.064 111.608C250.28 111.704 250.512 111.752 250.76 111.752C250.912 111.752 251.064 111.728 251.216 111.68C251.376 111.624 251.524 111.552 251.66 111.464C251.804 111.368 251.928 111.256 252.032 111.128C252.144 110.992 252.228 110.848 252.284 110.696ZM255.038 111.14C255.038 110.732 255.15 110.376 255.374 110.072C255.606 109.76 255.926 109.52 256.334 109.352C256.742 109.184 257.21 109.1 257.738 109.1C258.002 109.1 258.27 109.12 258.542 109.16C258.814 109.2 259.05 109.264 259.25 109.352V109.016C259.25 108.616 259.13 108.308 258.89 108.092C258.658 107.876 258.31 107.768 257.846 107.768C257.502 107.768 257.174 107.828 256.862 107.948C256.55 108.068 256.222 108.244 255.878 108.476L255.362 107.42C255.778 107.148 256.202 106.944 256.634 106.808C257.074 106.672 257.534 106.604 258.014 106.604C258.91 106.604 259.606 106.828 260.102 107.276C260.606 107.724 260.858 108.364 260.858 109.196V111.2C260.858 111.368 260.886 111.488 260.942 111.56C261.006 111.632 261.106 111.676 261.242 111.692V113C261.098 113.024 260.966 113.044 260.846 113.06C260.734 113.076 260.638 113.084 260.558 113.084C260.238 113.084 259.994 113.012 259.826 112.868C259.666 112.724 259.566 112.548 259.526 112.34L259.49 112.016C259.218 112.368 258.878 112.64 258.47 112.832C258.062 113.024 257.646 113.12 257.222 113.12C256.806 113.12 256.43 113.036 256.094 112.868C255.766 112.692 255.506 112.456 255.314 112.16C255.13 111.856 255.038 111.516 255.038 111.14ZM258.95 111.464C259.038 111.368 259.11 111.272 259.166 111.176C259.222 111.08 259.25 110.992 259.25 110.912V110.276C259.058 110.196 258.85 110.136 258.626 110.096C258.402 110.048 258.19 110.024 257.99 110.024C257.574 110.024 257.23 110.116 256.958 110.3C256.694 110.476 256.562 110.712 256.562 111.008C256.562 111.168 256.606 111.32 256.694 111.464C256.782 111.608 256.91 111.724 257.078 111.812C257.246 111.9 257.446 111.944 257.678 111.944C257.918 111.944 258.154 111.9 258.386 111.812C258.618 111.716 258.806 111.6 258.95 111.464ZM266.07 112.676C265.934 112.732 265.77 112.796 265.578 112.868C265.386 112.94 265.178 112.996 264.954 113.036C264.738 113.084 264.518 113.108 264.294 113.108C263.998 113.108 263.726 113.056 263.478 112.952C263.23 112.848 263.03 112.684 262.878 112.46C262.734 112.228 262.662 111.928 262.662 111.56V107.948H261.834V106.712H262.662V104.672H264.27V106.712H265.59V107.948H264.27V111.02C264.278 111.236 264.338 111.392 264.45 111.488C264.562 111.584 264.702 111.632 264.87 111.632C265.038 111.632 265.202 111.604 265.362 111.548C265.522 111.492 265.65 111.444 265.746 111.404L266.07 112.676ZM269.753 113.12C269.249 113.12 268.793 113.036 268.385 112.868C267.977 112.692 267.629 112.456 267.341 112.16C267.053 111.856 266.829 111.512 266.669 111.128C266.517 110.736 266.441 110.324 266.441 109.892C266.441 109.292 266.573 108.744 266.837 108.248C267.109 107.752 267.493 107.356 267.989 107.06C268.493 106.756 269.085 106.604 269.765 106.604C270.453 106.604 271.041 106.756 271.529 107.06C272.017 107.356 272.389 107.752 272.645 108.248C272.909 108.736 273.041 109.264 273.041 109.832C273.041 109.928 273.037 110.028 273.029 110.132C273.021 110.228 273.013 110.308 273.005 110.372H268.145C268.177 110.692 268.269 110.972 268.421 111.212C268.581 111.452 268.781 111.636 269.021 111.764C269.269 111.884 269.533 111.944 269.813 111.944C270.133 111.944 270.433 111.868 270.713 111.716C271.001 111.556 271.197 111.348 271.301 111.092L272.681 111.476C272.529 111.796 272.309 112.08 272.021 112.328C271.741 112.576 271.409 112.772 271.025 112.916C270.641 113.052 270.217 113.12 269.753 113.12ZM268.109 109.352H271.397C271.365 109.032 271.273 108.756 271.121 108.524C270.977 108.284 270.785 108.1 270.545 107.972C270.305 107.836 270.037 107.768 269.741 107.768C269.453 107.768 269.189 107.836 268.949 107.972C268.717 108.1 268.525 108.284 268.373 108.524C268.229 108.756 268.141 109.032 268.109 109.352Z" fill="#C1C1C1"/>
<path d="M210.975 134.075C210.195 134.075 209.485 133.925 208.845 133.625C208.215 133.325 207.67 132.92 207.21 132.41C206.76 131.89 206.41 131.31 206.16 130.67C205.91 130.02 205.785 129.355 205.785 128.675C205.785 127.965 205.915 127.29 206.175 126.65C206.445 126 206.81 125.425 207.27 124.925C207.74 124.415 208.29 124.015 208.92 123.725C209.56 123.425 210.26 123.275 211.02 123.275C211.79 123.275 212.49 123.43 213.12 123.74C213.76 124.05 214.305 124.465 214.755 124.985C215.205 125.505 215.555 126.085 215.805 126.725C216.055 127.365 216.18 128.025 216.18 128.705C216.18 129.405 216.05 130.08 215.79 130.73C215.53 131.37 215.165 131.945 214.695 132.455C214.235 132.955 213.685 133.35 213.045 133.64C212.415 133.93 211.725 134.075 210.975 134.075ZM207.885 128.675C207.885 129.135 207.955 129.58 208.095 130.01C208.235 130.44 208.435 130.825 208.695 131.165C208.965 131.495 209.29 131.76 209.67 131.96C210.06 132.15 210.5 132.245 210.99 132.245C211.49 132.245 211.935 132.145 212.325 131.945C212.715 131.735 213.04 131.46 213.3 131.12C213.56 130.77 213.755 130.385 213.885 129.965C214.025 129.535 214.095 129.105 214.095 128.675C214.095 128.215 214.02 127.775 213.87 127.355C213.73 126.925 213.525 126.545 213.255 126.215C212.995 125.875 212.67 125.61 212.28 125.42C211.9 125.22 211.47 125.12 210.99 125.12C210.48 125.12 210.03 125.225 209.64 125.435C209.26 125.635 208.94 125.905 208.68 126.245C208.42 126.585 208.22 126.965 208.08 127.385C207.95 127.805 207.885 128.235 207.885 128.675ZM224.805 134H222.795V129.59C222.795 128.96 222.685 128.5 222.465 128.21C222.245 127.92 221.94 127.775 221.55 127.775C221.28 127.775 221.005 127.845 220.725 127.985C220.455 128.125 220.21 128.32 219.99 128.57C219.77 128.81 219.61 129.09 219.51 129.41V134H217.5V126.14H219.315V127.595C219.515 127.255 219.77 126.97 220.08 126.74C220.39 126.5 220.745 126.32 221.145 126.2C221.555 126.07 221.985 126.005 222.435 126.005C222.925 126.005 223.325 126.095 223.635 126.275C223.955 126.445 224.195 126.68 224.355 126.98C224.525 127.27 224.64 127.6 224.7 127.97C224.77 128.34 224.805 128.715 224.805 129.095V134ZM230.198 134.15C229.568 134.15 228.998 134.045 228.488 133.835C227.978 133.615 227.543 133.32 227.183 132.95C226.823 132.57 226.543 132.14 226.343 131.66C226.153 131.17 226.058 130.655 226.058 130.115C226.058 129.365 226.223 128.68 226.553 128.06C226.893 127.44 227.373 126.945 227.993 126.575C228.623 126.195 229.363 126.005 230.213 126.005C231.073 126.005 231.808 126.195 232.418 126.575C233.028 126.945 233.493 127.44 233.813 128.06C234.143 128.67 234.308 129.33 234.308 130.04C234.308 130.16 234.303 130.285 234.293 130.415C234.283 130.535 234.273 130.635 234.263 130.715H228.188C228.228 131.115 228.343 131.465 228.533 131.765C228.733 132.065 228.983 132.295 229.283 132.455C229.593 132.605 229.923 132.68 230.273 132.68C230.673 132.68 231.048 132.585 231.398 132.395C231.758 132.195 232.003 131.935 232.133 131.615L233.858 132.095C233.668 132.495 233.393 132.85 233.033 133.16C232.683 133.47 232.268 133.715 231.788 133.895C231.308 134.065 230.778 134.15 230.198 134.15ZM228.143 129.44H232.253C232.213 129.04 232.098 128.695 231.908 128.405C231.728 128.105 231.488 127.875 231.188 127.715C230.888 127.545 230.553 127.46 230.183 127.46C229.823 127.46 229.493 127.545 229.193 127.715C228.903 127.875 228.663 128.105 228.473 128.405C228.293 128.695 228.183 129.04 228.143 129.44ZM242.448 123.38H244.368L245.583 126.905L246.813 123.38H248.718L246.888 128.225L248.238 131.615L251.253 123.35H253.503L249.243 134H247.458L245.583 129.53L243.723 134H241.938L237.693 123.35H239.913L242.943 131.615L244.263 128.225L242.448 123.38ZM252.995 131.675C252.995 131.165 253.135 130.72 253.415 130.34C253.705 129.95 254.105 129.65 254.615 129.44C255.125 129.23 255.71 129.125 256.37 129.125C256.7 129.125 257.035 129.15 257.375 129.2C257.715 129.25 258.01 129.33 258.26 129.44V129.02C258.26 128.52 258.11 128.135 257.81 127.865C257.52 127.595 257.085 127.46 256.505 127.46C256.075 127.46 255.665 127.535 255.275 127.685C254.885 127.835 254.475 128.055 254.045 128.345L253.4 127.025C253.92 126.685 254.45 126.43 254.99 126.26C255.54 126.09 256.115 126.005 256.715 126.005C257.835 126.005 258.705 126.285 259.325 126.845C259.955 127.405 260.27 128.205 260.27 129.245V131.75C260.27 131.96 260.305 132.11 260.375 132.2C260.455 132.29 260.58 132.345 260.75 132.365V134C260.57 134.03 260.405 134.055 260.255 134.075C260.115 134.095 259.995 134.105 259.895 134.105C259.495 134.105 259.19 134.015 258.98 133.835C258.78 133.655 258.655 133.435 258.605 133.175L258.56 132.77C258.22 133.21 257.795 133.55 257.285 133.79C256.775 134.03 256.255 134.15 255.725 134.15C255.205 134.15 254.735 134.045 254.315 133.835C253.905 133.615 253.58 133.32 253.34 132.95C253.11 132.57 252.995 132.145 252.995 131.675ZM257.885 132.08C257.995 131.96 258.085 131.84 258.155 131.72C258.225 131.6 258.26 131.49 258.26 131.39V130.595C258.02 130.495 257.76 130.42 257.48 130.37C257.2 130.31 256.935 130.28 256.685 130.28C256.165 130.28 255.735 130.395 255.395 130.625C255.065 130.845 254.9 131.14 254.9 131.51C254.9 131.71 254.955 131.9 255.065 132.08C255.175 132.26 255.335 132.405 255.545 132.515C255.755 132.625 256.005 132.68 256.295 132.68C256.595 132.68 256.89 132.625 257.18 132.515C257.47 132.395 257.705 132.25 257.885 132.08ZM262.02 135.53C262.2 135.57 262.365 135.605 262.515 135.635C262.675 135.665 262.81 135.68 262.92 135.68C263.11 135.68 263.265 135.63 263.385 135.53C263.515 135.44 263.64 135.27 263.76 135.02C263.88 134.78 264.005 134.44 264.135 134L261.03 126.14H263.115L265.23 131.945L267.09 126.14H269.01L265.71 135.56C265.59 135.91 265.405 136.225 265.155 136.505C264.915 136.795 264.61 137.02 264.24 137.18C263.88 137.35 263.475 137.435 263.025 137.435C262.865 137.435 262.705 137.42 262.545 137.39C262.385 137.37 262.21 137.33 262.02 137.27V135.53Z" fill="#A3A3A3"/>
<circle cx="182" cy="26" r="13" fill="#21B9DA" stroke="#702B91" stroke-width="6"/>
<path d="M175 24H186" stroke="#C9F5FF" stroke-linecap="round"/>
<path d="M175 24L177 22" stroke="#C9F5FF" stroke-linecap="round"/>
<path d="M175 24L177 26" stroke="#C9F5FF" stroke-linecap="round"/>
<path d="M188 29L186 27" stroke="#C9F5FF" stroke-linecap="round"/>
<path d="M188 29L186 31" stroke="#C9F5FF" stroke-linecap="round"/>
<path d="M177 29L188 29" stroke="#C9F5FF" stroke-linecap="round"/>
<rect y="203" width="364" height="34" fill="#21B9DA"/>
<path d="M141.5 216.855C141.4 216.745 141.255 216.63 141.065 216.51C140.875 216.38 140.65 216.26 140.39 216.15C140.13 216.04 139.85 215.95 139.55 215.88C139.25 215.81 138.94 215.775 138.62 215.775C137.92 215.775 137.4 215.905 137.06 216.165C136.72 216.425 136.55 216.785 136.55 217.245C136.55 217.585 136.645 217.855 136.835 218.055C137.025 218.245 137.315 218.405 137.705 218.535C138.095 218.665 138.585 218.805 139.175 218.955C139.895 219.125 140.52 219.33 141.05 219.57C141.58 219.8 141.985 220.11 142.265 220.5C142.545 220.89 142.685 221.405 142.685 222.045C142.685 222.585 142.585 223.05 142.385 223.44C142.185 223.83 141.905 224.15 141.545 224.4C141.185 224.64 140.77 224.82 140.3 224.94C139.83 225.05 139.325 225.105 138.785 225.105C138.255 225.105 137.725 225.05 137.195 224.94C136.675 224.83 136.175 224.67 135.695 224.46C135.225 224.24 134.79 223.975 134.39 223.665L135.155 222.225C135.285 222.355 135.47 222.5 135.71 222.66C135.96 222.81 136.245 222.955 136.565 223.095C136.895 223.235 137.25 223.355 137.63 223.455C138.02 223.545 138.415 223.59 138.815 223.59C139.485 223.59 139.995 223.475 140.345 223.245C140.705 223.005 140.885 222.665 140.885 222.225C140.885 221.865 140.77 221.58 140.54 221.37C140.31 221.15 139.975 220.965 139.535 220.815C139.095 220.665 138.57 220.515 137.96 220.365C137.26 220.175 136.675 219.97 136.205 219.75C135.735 219.52 135.38 219.23 135.14 218.88C134.91 218.52 134.795 218.065 134.795 217.515C134.795 216.815 134.965 216.225 135.305 215.745C135.645 215.255 136.105 214.89 136.685 214.65C137.275 214.4 137.935 214.275 138.665 214.275C139.145 214.275 139.6 214.33 140.03 214.44C140.46 214.54 140.86 214.68 141.23 214.86C141.61 215.04 141.955 215.245 142.265 215.475L141.5 216.855ZM147.715 225.15C147.105 225.15 146.55 225.045 146.05 224.835C145.56 224.615 145.135 224.32 144.775 223.95C144.415 223.57 144.135 223.14 143.935 222.66C143.745 222.17 143.65 221.65 143.65 221.1C143.65 220.36 143.82 219.685 144.16 219.075C144.5 218.455 144.975 217.96 145.585 217.59C146.195 217.21 146.91 217.02 147.73 217.02C148.55 217.02 149.255 217.21 149.845 217.59C150.445 217.96 150.91 218.45 151.24 219.06C151.57 219.67 151.735 220.325 151.735 221.025C151.735 221.145 151.73 221.26 151.72 221.37C151.71 221.47 151.7 221.555 151.69 221.625H145.405C145.435 222.085 145.56 222.49 145.78 222.84C146.01 223.18 146.3 223.45 146.65 223.65C147 223.84 147.375 223.935 147.775 223.935C148.215 223.935 148.63 223.825 149.02 223.605C149.42 223.385 149.69 223.095 149.83 222.735L151.24 223.14C151.07 223.52 150.81 223.865 150.46 224.175C150.12 224.475 149.715 224.715 149.245 224.895C148.775 225.065 148.265 225.15 147.715 225.15ZM145.36 220.53H150.1C150.07 220.08 149.94 219.685 149.71 219.345C149.49 218.995 149.205 218.725 148.855 218.535C148.515 218.335 148.135 218.235 147.715 218.235C147.305 218.235 146.925 218.335 146.575 218.535C146.235 218.725 145.955 218.995 145.735 219.345C145.515 219.685 145.39 220.08 145.36 220.53ZM152.511 222.705C152.511 222.205 152.651 221.77 152.931 221.4C153.221 221.02 153.616 220.73 154.116 220.53C154.616 220.32 155.196 220.215 155.856 220.215C156.206 220.215 156.561 220.24 156.921 220.29C157.291 220.34 157.616 220.42 157.896 220.53V220.035C157.896 219.485 157.731 219.055 157.401 218.745C157.071 218.435 156.596 218.28 155.976 218.28C155.536 218.28 155.121 218.36 154.731 218.52C154.341 218.67 153.926 218.885 153.486 219.165L152.931 218.055C153.451 217.705 153.971 217.445 154.491 217.275C155.021 217.105 155.576 217.02 156.156 217.02C157.206 217.02 158.031 217.3 158.631 217.86C159.241 218.41 159.546 219.195 159.546 220.215V223.14C159.546 223.33 159.576 223.465 159.636 223.545C159.706 223.625 159.821 223.67 159.981 223.68V225C159.831 225.03 159.696 225.05 159.576 225.06C159.456 225.07 159.356 225.075 159.276 225.075C158.926 225.075 158.661 224.99 158.481 224.82C158.301 224.65 158.196 224.45 158.166 224.22L158.121 223.77C157.781 224.21 157.346 224.55 156.816 224.79C156.286 225.03 155.751 225.15 155.211 225.15C154.691 225.15 154.226 225.045 153.816 224.835C153.406 224.615 153.086 224.32 152.856 223.95C152.626 223.58 152.511 223.165 152.511 222.705ZM157.506 223.185C157.626 223.055 157.721 222.925 157.791 222.795C157.861 222.665 157.896 222.55 157.896 222.45V221.55C157.616 221.44 157.321 221.36 157.011 221.31C156.701 221.25 156.396 221.22 156.096 221.22C155.496 221.22 155.006 221.34 154.626 221.58C154.256 221.82 154.071 222.15 154.071 222.57C154.071 222.8 154.131 223.02 154.251 223.23C154.381 223.44 154.561 223.61 154.791 223.74C155.031 223.87 155.326 223.935 155.676 223.935C156.036 223.935 156.381 223.865 156.711 223.725C157.041 223.585 157.306 223.405 157.506 223.185ZM165.958 218.58C165.318 218.59 164.748 218.735 164.248 219.015C163.758 219.295 163.408 219.69 163.198 220.2V225H161.548V217.155H163.078V218.91C163.348 218.37 163.703 217.94 164.143 217.62C164.583 217.29 165.048 217.11 165.538 217.08C165.638 217.08 165.718 217.08 165.778 217.08C165.848 217.08 165.908 217.085 165.958 217.095V218.58ZM170.566 225.15C169.956 225.15 169.401 225.045 168.901 224.835C168.411 224.615 167.986 224.315 167.626 223.935C167.266 223.555 166.986 223.12 166.786 222.63C166.596 222.14 166.501 221.62 166.501 221.07C166.501 220.33 166.666 219.655 166.996 219.045C167.336 218.435 167.806 217.945 168.406 217.575C169.016 217.205 169.736 217.02 170.566 217.02C171.366 217.02 172.061 217.2 172.651 217.56C173.251 217.91 173.691 218.38 173.971 218.97L172.366 219.48C172.186 219.15 171.931 218.895 171.601 218.715C171.281 218.525 170.926 218.43 170.536 218.43C170.096 218.43 169.696 218.545 169.336 218.775C168.986 218.995 168.706 219.305 168.496 219.705C168.296 220.095 168.196 220.55 168.196 221.07C168.196 221.57 168.301 222.025 168.511 222.435C168.721 222.835 169.001 223.155 169.351 223.395C169.711 223.625 170.111 223.74 170.551 223.74C170.821 223.74 171.081 223.695 171.331 223.605C171.591 223.505 171.816 223.375 172.006 223.215C172.196 223.045 172.331 222.86 172.411 222.66L174.031 223.14C173.861 223.53 173.606 223.875 173.266 224.175C172.936 224.475 172.541 224.715 172.081 224.895C171.631 225.065 171.126 225.15 170.566 225.15ZM182.425 225H180.775V220.605C180.775 219.895 180.645 219.365 180.385 219.015C180.125 218.665 179.76 218.49 179.29 218.49C179 218.49 178.7 218.57 178.39 218.73C178.08 218.89 177.805 219.11 177.565 219.39C177.325 219.66 177.15 219.975 177.04 220.335V225H175.39V214.05H177.04V218.73C177.34 218.2 177.75 217.785 178.27 217.485C178.79 217.175 179.35 217.02 179.95 217.02C180.44 217.02 180.845 217.105 181.165 217.275C181.485 217.445 181.735 217.68 181.915 217.98C182.105 218.27 182.235 218.61 182.305 219C182.385 219.38 182.425 219.785 182.425 220.215V225ZM188.257 225V214.35H195.352V215.835H189.937V219.015H194.467V220.41H189.937V225H188.257ZM196.748 214.05H198.398V222.735C198.398 223.135 198.458 223.39 198.578 223.5C198.698 223.61 198.848 223.665 199.028 223.665C199.228 223.665 199.413 223.645 199.583 223.605C199.763 223.565 199.918 223.515 200.048 223.455L200.288 224.76C200.048 224.86 199.763 224.945 199.433 225.015C199.103 225.085 198.808 225.12 198.548 225.12C197.988 225.12 197.548 224.965 197.228 224.655C196.908 224.335 196.748 223.895 196.748 223.335V214.05ZM201.245 225V217.155H202.895V225H201.245ZM201.245 215.865V214.05H202.895V215.865H201.245ZM207.983 225.075C207.453 225.075 206.968 224.97 206.528 224.76C206.088 224.54 205.708 224.245 205.388 223.875C205.078 223.505 204.833 223.08 204.653 222.6C204.483 222.12 204.398 221.615 204.398 221.085C204.398 220.525 204.488 220 204.668 219.51C204.848 219.02 205.098 218.59 205.418 218.22C205.748 217.84 206.133 217.545 206.573 217.335C207.013 217.125 207.503 217.02 208.043 217.02C208.673 217.02 209.223 217.17 209.693 217.47C210.173 217.77 210.568 218.16 210.878 218.64V217.155H212.333V224.775C212.333 225.535 212.148 226.18 211.778 226.71C211.418 227.24 210.923 227.645 210.293 227.925C209.663 228.205 208.953 228.345 208.163 228.345C207.293 228.345 206.573 228.195 206.003 227.895C205.433 227.595 204.948 227.185 204.548 226.665L205.478 225.795C205.778 226.215 206.163 226.535 206.633 226.755C207.113 226.975 207.623 227.085 208.163 227.085C208.613 227.085 209.028 227 209.408 226.83C209.798 226.67 210.108 226.415 210.338 226.065C210.568 225.725 210.683 225.295 210.683 224.775V223.575C210.403 224.045 210.018 224.415 209.528 224.685C209.038 224.945 208.523 225.075 207.983 225.075ZM208.523 223.74C208.773 223.74 209.013 223.7 209.243 223.62C209.473 223.53 209.683 223.415 209.873 223.275C210.073 223.125 210.243 222.96 210.383 222.78C210.523 222.59 210.623 222.39 210.683 222.18V220.125C210.553 219.785 210.368 219.49 210.128 219.24C209.888 218.98 209.618 218.78 209.318 218.64C209.018 218.5 208.713 218.43 208.403 218.43C208.043 218.43 207.718 218.51 207.428 218.67C207.148 218.82 206.908 219.025 206.708 219.285C206.508 219.535 206.353 219.82 206.243 220.14C206.133 220.46 206.078 220.79 206.078 221.13C206.078 221.49 206.138 221.825 206.258 222.135C206.388 222.445 206.563 222.725 206.783 222.975C207.003 223.215 207.263 223.405 207.563 223.545C207.863 223.675 208.183 223.74 208.523 223.74ZM221.346 225H219.696V220.605C219.696 219.895 219.566 219.365 219.306 219.015C219.046 218.665 218.681 218.49 218.211 218.49C217.921 218.49 217.621 218.57 217.311 218.73C217.001 218.89 216.726 219.11 216.486 219.39C216.246 219.66 216.071 219.975 215.961 220.335V225H214.311V214.05H215.961V218.73C216.261 218.2 216.671 217.785 217.191 217.485C217.711 217.175 218.271 217.02 218.871 217.02C219.361 217.02 219.766 217.105 220.086 217.275C220.406 217.445 220.656 217.68 220.836 217.98C221.026 218.27 221.156 218.61 221.226 219C221.306 219.38 221.346 219.785 221.346 220.215V225ZM227.568 224.595C227.428 224.665 227.253 224.74 227.043 224.82C226.833 224.9 226.593 224.97 226.323 225.03C226.063 225.09 225.793 225.12 225.513 225.12C225.173 225.12 224.858 225.06 224.568 224.94C224.278 224.82 224.043 224.63 223.863 224.37C223.693 224.1 223.608 223.755 223.608 223.335V218.43H222.573V217.155H223.608V214.575H225.258V217.155H226.968V218.43H225.258V222.81C225.278 223.08 225.363 223.28 225.513 223.41C225.673 223.54 225.868 223.605 226.098 223.605C226.328 223.605 226.548 223.565 226.758 223.485C226.968 223.405 227.123 223.34 227.223 223.29L227.568 224.595Z" fill="white"/>
</svg>
