<svg width="41" height="31" viewBox="0 0 41 31" fill="none" xmlns="http://www.w3.org/2000/svg">
<mask id="path-1-inside-1_172_2504" fill="white">
<path d="M39.8653 15.9406C39.8653 14.7844 39.5743 13.6395 39.0089 12.5713C38.4436 11.5031 37.6149 10.5325 36.5702 9.71497C35.5256 8.89741 34.2854 8.24888 32.9205 7.80642C31.5555 7.36396 30.0926 7.13623 28.6153 7.13623C27.1379 7.13623 25.675 7.36396 24.3101 7.80642C22.9451 8.24888 21.705 8.89741 20.6603 9.71497C19.6156 10.5325 18.787 11.5031 18.2216 12.5713C17.6562 13.6395 17.3652 14.7844 17.3652 15.9406L28.6153 15.9406H39.8653Z"/>
</mask>
<path d="M39.8653 15.9406C39.8653 14.7844 39.5743 13.6395 39.0089 12.5713C38.4436 11.5031 37.6149 10.5325 36.5702 9.71497C35.5256 8.89741 34.2854 8.24888 32.9205 7.80642C31.5555 7.36396 30.0926 7.13623 28.6153 7.13623C27.1379 7.13623 25.675 7.36396 24.3101 7.80642C22.9451 8.24888 21.705 8.89741 20.6603 9.71497C19.6156 10.5325 18.787 11.5031 18.2216 12.5713C17.6562 13.6395 17.3652 14.7844 17.3652 15.9406L28.6153 15.9406H39.8653Z" stroke="#702B91" stroke-width="4" mask="url(#path-1-inside-1_172_2504)"/>
<line x1="17.3652" y1="25.8931" x2="39.8653" y2="25.8931" stroke="#702B91" stroke-width="2"/>
<path d="M18.0469 18.7271L23.0469 22.151L28.6719 18.7271L34.2969 22.151L39.9219 18.7271" stroke="#702B91" stroke-width="2"/>
<line x1="17.3652" y1="30" x2="39.8653" y2="30" stroke="#702B91" stroke-width="2"/>
<path d="M3.38594 7.81835L2.11307 7.81835C1.5184 7.81835 1.05514 8.33419 1.11882 8.92544L3.38625 29.9775L11.911 29.9775L13.5324 8.89503C13.5771 8.31424 13.1179 7.81835 12.5354 7.81835L6.11321 7.81835C6.11321 7.81835 6.11321 5.77292 6.11321 4.06837C6.11321 2.92311 3.38594 1.00018 3.38594 1.00018" stroke="#702B91" stroke-width="2"/>
</svg>
