<svg width="36" height="33" viewBox="0 0 36 33" fill="none" xmlns="http://www.w3.org/2000/svg">
<path d="M0 12.0978L3.24075 8.39404C4.76138 9.93611 5.60619 10.7166 7.03706 11.7274C6.46083 13.6195 6.24913 14.7735 6.11113 17.0978C3.48696 15.2458 2.14407 14.2531 0 12.0978Z" fill="#BDBDBD"/>
<rect x="27.2178" y="18.2461" width="3.86216" height="5.15677" transform="rotate(-39.3732 27.2178 18.2461)" fill="#BDBDBD"/>
<path d="M13.7037 5.14952C11.2935 6.89343 8.48608 9.92185 7.77135 13.834C7.162 17.1693 7.46804 20.0754 9.24735 22.9615C11.4374 26.5138 15.6472 27.3743 18.7038 27.592C23.9818 27.9679 29.6177 22.9567 29.6177 22.9567L26.3479 19.0114C26.3479 19.0114 24.0092 21.2001 22.1271 21.8031C19.1757 22.7487 16.5195 22.9024 14.2567 20.7846C12.395 19.0421 12.1182 17.3142 12.4065 15.2784C12.6425 13.6118 14.8161 10.7961 16.1102 9.76478C17.394 8.74166 18.855 7.64721 20.3679 8.28436C21.8808 8.92151 17.3145 13.834 14.2567 13.834C13.7949 14.8653 13.333 16.7233 14.0738 18.8529C17.8705 18.5179 18.9816 17.7449 20.7408 16.5735C22.2704 15.5549 25.173 11.987 25.4508 9.76478C25.6852 7.88966 25.2604 6.44549 24.4439 5.50266C22.993 3.82729 21.1108 3.26721 19.8145 3.14832C17.9627 2.97846 15.7418 3.67479 13.7037 5.14952Z" fill="#BDBDBD"/>
</svg>
