<svg width="36" height="33" viewBox="0 0 36 33" fill="none" xmlns="http://www.w3.org/2000/svg">
<path d="M0 12.0978L3.24075 8.39404C4.76138 9.93611 5.60619 10.7166 7.03706 11.7274C6.46083 13.6195 6.24913 14.7735 6.11113 17.0978C3.48696 15.2458 2.14407 14.2531 0 12.0978Z" fill="#702B91"/>
<rect x="27.2178" y="18.2461" width="3.86216" height="5.15677" transform="rotate(-39.3732 27.2178 18.2461)" fill="#59C9E0"/>
<path d="M13.7037 5.14977C11.2935 6.89367 8.48608 9.9221 7.77135 13.8342C7.162 17.1695 7.46804 20.0756 9.24735 22.9617C11.4374 26.5141 15.6472 27.3746 18.7038 27.5922C23.9818 27.9681 29.6177 22.9569 29.6177 22.9569L26.3479 19.0116C26.3479 19.0116 24.0092 21.2004 22.1271 21.8033C19.1757 22.7489 16.5195 22.9026 14.2567 20.7848C12.395 19.0423 12.1182 17.3144 12.4065 15.2787C12.6425 13.612 14.8161 10.7964 16.1102 9.76502C17.394 8.7419 18.855 7.64745 20.3679 8.28461C21.8808 8.92176 17.3145 13.8342 14.2567 13.8342C13.7949 14.8656 13.333 16.7235 14.0738 18.8532C17.8705 18.5181 18.9816 17.7452 20.7408 16.5737C22.2704 15.5552 25.173 11.9872 25.4508 9.76502C25.6852 7.8899 25.2604 6.44573 24.4439 5.5029C22.993 3.82753 21.1108 3.26746 19.8145 3.14856C17.9627 2.97871 15.7418 3.67504 13.7037 5.14977Z" fill="#702B91"/>
</svg>
