<svg width="27" height="35" viewBox="0 0 27 35" fill="none" xmlns="http://www.w3.org/2000/svg">
<path d="M7.97452 35H12.1312C12.1312 35 11.5281 23.9697 12.3595 13.7878C12.5347 11.6414 13.2765 7.86984 14.5483 6.15117C15.4902 4.87843 17.0423 4.45418 18.1788 5.3027C20.5516 7.07429 14.8535 14.2119 14.8535 14.2119C14.8535 14.2119 19.6339 12.9393 21.5041 14.2119C23.1249 15.3147 22.4658 18.3212 21.0884 19.7271C18.5942 22.2728 13.3013 20.5758 13.3013 20.5758V24.8181C13.3013 24.8181 18.5944 27.7877 22.3354 25.6665C26.9314 23.0606 28.5704 15.909 25.2451 12.0908C23.1668 9.7045 18.1788 12.0908 18.1788 12.0908C18.1788 12.0908 25.2451 6.99988 21.5041 1.90874C19.2242 -1.19405 15.7177 -0.121178 12.7751 2.33293C9.95039 4.68879 8.63741 10.0911 8.20279 13.7878C6.95579 24.3939 7.97452 35 7.97452 35Z" fill="#702B91"/>
<path fill-rule="evenodd" clip-rule="evenodd" d="M6.65066 19.3028V23.1211C5.5961 22.8135 3.75803 21.6205 3 21.2204V17C3.822 17.6079 5.67113 18.9696 6.65066 19.3028Z" fill="#702B91"/>
<path d="M0 14.6361V19.3028C0.26465 19.5008 0.515425 19.6904 0.75581 19.8721C1.54982 20.4722 1.55589 20.4213 2.24878 20.8708V16.4346C2.02597 16.2501 2.47639 16.6265 2.24878 16.4346C1.55149 15.8466 0.821894 15.2315 0 14.6361Z" fill="#59C9E0"/>
</svg>
