<svg width="39" height="30" viewBox="0 0 39 30" fill="none" xmlns="http://www.w3.org/2000/svg">
<path d="M22.4476 1.40184L22.1477 1.0007L21.6469 1.00062L17.7402 1L16.2043 0.999757L16.8255 2.40444L21.1287 12.1352L10.3388 12.2561L6.58747 7.9432L6.2739 7.58269L5.79642 7.60015L3.63534 7.67915L2.14676 7.73358L2.76079 9.0907L5.4042 14.9332L2.76455 20.6299L2.21536 21.8151L3.50283 22.0359L5.66391 22.4065L6.24116 22.5056L6.60989 22.0505L10.3545 17.4295L21.1455 17.7065L16.8237 27.5997L16.212 29H17.7401H21.6467H22.1514L22.4511 28.5941L30.478 17.7247C30.657 17.7161 30.8782 17.704 31.1303 17.6876C31.8083 17.6435 32.7201 17.567 33.6371 17.4373C34.54 17.3096 35.5079 17.1224 36.2696 16.8389C36.6457 16.6989 37.041 16.5106 37.3573 16.2442C37.6808 15.9716 38.0194 15.5265 38.0028 14.9112C37.9866 14.3112 37.642 13.885 37.3215 13.6226C37.0038 13.3625 36.6106 13.1758 36.2326 13.0352C35.4688 12.7512 34.5053 12.5623 33.6072 12.4328C32.6956 12.3014 31.792 12.2231 31.1206 12.1777C30.8711 12.1608 30.6523 12.1484 30.4753 12.1394L22.4476 1.40184Z" stroke="#BDBDBD" stroke-width="2"/>
</svg>
