<svg width="56" height="52" viewBox="0 0 56 52" fill="none" xmlns="http://www.w3.org/2000/svg">
<path d="M0 18.974L5.08411 13.1636C7.46967 15.5828 8.79502 16.8072 11.0398 18.3929C10.1358 21.3613 9.80367 23.1717 9.58717 26.818C5.47036 23.9127 3.36363 22.3553 0 18.974Z" fill="white"/>
<rect x="42.7051" y="28.6279" width="6.05898" height="8.08997" transform="rotate(-39.3732 42.7051 28.6279)" fill="#59C9E0"/>
<path d="M21.4974 8.07851C17.7164 10.8144 13.312 15.5654 12.1907 21.7027C11.2348 26.9351 11.7149 31.4943 14.5063 36.022C17.942 41.595 24.5465 42.9449 29.3416 43.2864C37.6218 43.876 46.4635 36.0144 46.4635 36.0144L41.3338 29.8251C41.3338 29.8251 37.6647 33.2588 34.7122 34.2047C30.082 35.6881 25.9149 35.9293 22.3651 32.6068C19.4444 29.8732 19.0101 27.1625 19.4624 23.9688C19.8327 21.3541 23.2426 16.9369 25.2728 15.3189C27.2868 13.7139 29.5788 11.9969 31.9523 12.9965C34.3257 13.996 27.1621 21.7027 22.3651 21.7027C21.6405 23.3207 20.9159 26.2355 22.078 29.5765C28.0343 29.0509 29.7774 27.8382 32.5374 26.0004C34.9369 24.4026 39.4906 18.8052 39.9264 15.3189C40.2941 12.3772 39.6276 10.1116 38.3467 8.63251C36.0705 6.00418 33.1178 5.12553 31.0842 4.939C28.179 4.67254 24.6949 5.76494 21.4974 8.07851Z" fill="white"/>
</svg>
