<svg width="17" height="10" viewBox="0 0 17 10" fill="none" xmlns="http://www.w3.org/2000/svg">
<path d="M14.1728 2.22428C14.1728 3.17657 13.4008 3.94855 12.4485 3.94855C11.4963 3.94855 10.7243 3.17657 10.7243 2.22428C10.7243 1.27199 11.4963 0.500003 12.4485 0.500003C13.4008 0.500003 14.1728 1.27199 14.1728 2.22428ZM9.6565 5.58995C9.86391 5.38254 10.0933 5.1994 10.3401 5.04351C10.9452 5.4422 11.6703 5.67442 12.4485 5.67442C13.2268 5.67442 13.9519 5.4422 14.557 5.04351C14.8038 5.1994 15.0332 5.38254 15.2406 5.58995C15.6072 5.9566 15.8981 6.39189 16.0965 6.87095C16.2309 7.19523 16.321 7.53528 16.3653 7.88199H8.53179C8.57605 7.53528 8.66624 7.19524 8.80057 6.87095C8.999 6.39189 9.28985 5.9566 9.6565 5.58995Z" fill="#BDBDBD" stroke="#BDBDBD"/>
<path d="M7.17282 2.22428C7.17282 3.17657 6.40084 3.94855 5.44855 3.94855C4.49626 3.94855 3.72427 3.17657 3.72427 2.22428C3.72427 1.27199 4.49626 0.500003 5.44855 0.500003C6.40084 0.500003 7.17282 1.27199 7.17282 2.22428ZM2.6565 5.58986C2.86391 5.38245 3.09327 5.19931 3.34009 5.04342C3.94518 5.4421 4.67026 5.67433 5.44855 5.67433C6.22684 5.67433 6.95191 5.4421 7.557 5.04342C7.80382 5.19931 8.03319 5.38245 8.24059 5.58986C8.60725 5.95651 8.89809 6.3918 9.09653 6.87086C9.23085 7.19514 9.32105 7.53519 9.36531 7.8819H1.53178C1.57605 7.53519 1.66624 7.19514 1.80057 6.87086C1.999 6.3918 2.28985 5.95651 2.6565 5.58986Z" fill="#BDBDBD" stroke="#BDBDBD"/>
<path d="M2.6565 5.58989C2.86391 5.38249 3.09327 5.19934 3.34009 5.04345C3.94518 5.44214 4.67026 5.67436 5.44855 5.67436C6.22684 5.67436 6.95191 5.44214 7.557 5.04345C7.80382 5.19934 8.03319 5.38248 8.24059 5.58989C8.60725 5.95654 8.89809 6.39183 9.09653 6.87089C9.23085 7.19517 9.32105 7.53522 9.36531 7.88193H1.53178C1.57605 7.53522 1.66624 7.19518 1.80057 6.87089C1.999 6.39183 2.28985 5.95654 2.6565 5.58989Z" fill="#BDBDBD" stroke="#BDBDBD"/>
<path d="M3.58881 4.17478L3.4097 4.03203L3.20719 4.13901C2.7837 4.36273 2.39532 4.64899 2.05546 4.98885C1.60988 5.43443 1.25642 5.96342 1.01527 6.54561C0.774118 7.12779 0.65 7.75178 0.65 8.38193V8.73193H1H9.89709H10.2471V8.38193C10.2471 7.75178 10.123 7.12779 9.88182 6.54561C9.64068 5.96342 9.28722 5.43443 8.84163 4.98885C8.50177 4.64899 8.1134 4.36273 7.6899 4.13901L7.48739 4.03203L7.30828 4.17478C6.79797 4.58151 6.1521 4.82436 5.44855 4.82436C4.74499 4.82436 4.09912 4.58151 3.58881 4.17478Z" fill="#BDBDBD" stroke="#F5F5F5" stroke-width="0.7"/>
</svg>
