<svg width="30" height="29" viewBox="0 0 30 29" fill="none" xmlns="http://www.w3.org/2000/svg">
<path d="M13.9747 0.997674C12.9679 0.99769 12.118 1.74613 11.9908 2.74488L11.7058 4.98098L9.82677 5.67542L8.06685 4.42394C7.27138 3.85828 6.18379 3.94944 5.49359 4.63965L4.75148 5.38177C4.07736 6.0559 3.97277 7.11212 4.50158 7.90536L5.67531 9.66599L4.91262 11.5839L2.71466 11.9003C1.73028 12.0419 0.999554 12.8854 0.999561 13.8799L0.999569 15.0777C0.999576 16.0743 1.73333 16.9189 2.72018 17.0581L4.92891 17.3697L5.65811 19.0838L4.38914 20.8527C3.80107 21.6725 3.91562 22.8019 4.65631 23.4869L5.68261 24.436C6.40649 25.1054 7.51024 25.1474 8.28291 24.5349L9.84864 23.2938L11.7056 24.0204L11.9894 26.2092C12.1186 27.206 12.9676 27.9521 13.9728 27.9521L15.188 27.9521C16.2015 27.9521 17.0547 27.1941 17.1741 26.1877L17.4442 23.9112L19.2376 23.2735L20.9221 24.5168C21.6101 25.0246 22.5447 25.0389 23.2479 24.5524L24.1254 23.9452C25.0292 23.3198 25.259 22.0823 24.64 21.1741L23.2342 19.1115L24.041 17.3367L26.0659 17.1492C27.0471 17.0584 27.816 16.2664 27.8776 15.2829L27.9592 13.9819L26.9612 13.9194L27.9592 13.9819C28.0237 12.9542 27.2972 12.0455 26.2805 11.8821L24.0731 11.5274L23.3567 9.85577L24.6025 8.06478C25.1619 7.26066 25.0566 6.16974 24.3537 5.48751L23.4147 4.57613C22.6963 3.87893 21.5732 3.82019 20.7861 4.43866L19.2694 5.63036L17.4453 4.77916L17.1811 2.74055C17.0519 1.7437 16.2028 0.99764 15.1976 0.997655L13.9747 0.997674Z" stroke="white" stroke-width="2"/>
<path d="M14.4002 19.1734C17.0764 19.1734 19.3033 17.0666 19.3033 14.3982C19.3033 11.7298 17.0764 9.62305 14.4002 9.62305C11.724 9.62305 9.49707 11.7298 9.49707 14.3982C9.49707 17.0666 11.724 19.1734 14.4002 19.1734Z" stroke="white" stroke-width="2"/>
</svg>
